G04 EAGLE Gerber RS-274X export*
G75*
%MOMM*%
%FSLAX34Y34*%
%LPD*%
%INTop Copper*%
%IPPOS*%
%AMOC8*
5,1,8,0,0,1.08239X$1,22.5*%
G01*
%ADD10R,0.660400X2.032000*%
%ADD11C,1.422400*%
%ADD12C,1.524000*%
%ADD13R,1.500000X1.300000*%
%ADD14R,1.308000X1.308000*%
%ADD15C,1.308000*%
%ADD16C,0.304800*%
%ADD17C,0.914400*%


D10*
X88900Y45466D03*
X88900Y106934D03*
X101600Y45466D03*
X114300Y45466D03*
X101600Y106934D03*
X114300Y106934D03*
X127000Y45466D03*
X127000Y106934D03*
X139700Y45466D03*
X152400Y45466D03*
X139700Y106934D03*
X152400Y106934D03*
X165100Y45466D03*
X165100Y106934D03*
D11*
X96012Y152400D02*
X81788Y152400D01*
X81788Y177800D02*
X96012Y177800D01*
X183388Y152400D02*
X197612Y152400D01*
X197612Y177800D02*
X183388Y177800D01*
D12*
X45720Y101600D02*
X30480Y101600D01*
X30480Y76200D02*
X45720Y76200D01*
X45720Y50800D02*
X30480Y50800D01*
X30480Y25400D02*
X45720Y25400D01*
X233680Y101600D02*
X248920Y101600D01*
X248920Y76200D02*
X233680Y76200D01*
X233680Y50800D02*
X248920Y50800D01*
X248920Y25400D02*
X233680Y25400D01*
D13*
X139700Y155600D03*
X139700Y174600D03*
X38100Y174600D03*
X38100Y155600D03*
X228600Y155600D03*
X228600Y174600D03*
D14*
X221475Y253850D03*
X221475Y330050D03*
D15*
X221475Y279250D03*
X221475Y304650D03*
X246875Y304650D03*
X246875Y279250D03*
X246875Y253850D03*
X246875Y330050D03*
D16*
X164592Y45720D02*
X152400Y45720D01*
X164592Y45720D02*
X165100Y45466D01*
X100584Y42672D02*
X100584Y36576D01*
X100584Y42672D02*
X101600Y45466D01*
X152400Y45720D02*
X152400Y54864D01*
X134112Y73152D01*
X115824Y73152D01*
X103632Y60960D01*
X103632Y45720D01*
X152400Y45720D02*
X152400Y45466D01*
X103632Y45720D02*
X101600Y45466D01*
X89408Y25400D02*
X38100Y25400D01*
X89408Y25400D02*
X100584Y36576D01*
X212090Y195580D02*
X262382Y245872D01*
X114300Y147320D02*
X101600Y134620D01*
X114300Y147320D02*
X114300Y165100D01*
X264416Y312509D02*
X246875Y330050D01*
X264416Y296791D02*
X246875Y279250D01*
X264416Y296791D02*
X264416Y312509D01*
X246875Y279250D02*
X262382Y263743D01*
X262382Y245872D01*
X101600Y134620D02*
X101600Y106934D01*
X88900Y106934D01*
X160680Y195580D02*
X212090Y195580D01*
X139700Y174600D02*
X123800Y174600D01*
X114300Y165100D01*
X139700Y174600D02*
X160680Y195580D01*
X228600Y174600D02*
X238658Y174600D01*
X228600Y179070D02*
X212090Y195580D01*
X228600Y179070D02*
X228600Y174600D01*
X264416Y73916D02*
X241300Y50800D01*
X264416Y148842D02*
X238658Y174600D01*
X264416Y148842D02*
X264416Y73916D01*
D17*
X228854Y139700D03*
X128270Y125730D03*
X186944Y125730D03*
D16*
X214884Y125730D01*
X128270Y125730D02*
X127000Y124460D01*
X127000Y106934D01*
X228600Y155600D02*
X228854Y155346D01*
X228854Y139700D01*
X214884Y125730D01*
X221475Y330050D02*
X190650Y330050D01*
X190500Y330200D01*
X88900Y228600D01*
X88900Y177800D01*
X50800Y177800D02*
X47600Y174600D01*
X38100Y174600D01*
X50800Y177800D02*
X88900Y177800D01*
X38100Y155600D02*
X38100Y101600D01*
X145034Y86614D02*
X153416Y94996D01*
X153416Y106172D01*
X89154Y134112D02*
X89027Y150876D01*
X89154Y134112D02*
X75184Y120142D01*
X75184Y92202D01*
X89027Y150876D02*
X89027Y152400D01*
X75184Y92202D02*
X77343Y90043D01*
X153416Y146050D02*
X197866Y101600D01*
X153416Y146050D02*
X143866Y155600D01*
X139700Y155600D01*
X153416Y146050D02*
X153416Y108966D01*
X152400Y109728D01*
X152400Y106934D01*
X152400Y106680D02*
X153416Y106172D01*
X152400Y106680D02*
X152400Y106934D01*
X89027Y152400D02*
X88900Y152400D01*
X80772Y86614D02*
X145034Y86614D01*
X80772Y86614D02*
X77343Y90043D01*
X80772Y86614D02*
X88900Y78486D01*
X88900Y45466D01*
X197866Y101600D02*
X241300Y101600D01*
X178562Y33528D02*
X170180Y25146D01*
X178562Y33528D02*
X178562Y94996D01*
X169926Y25400D02*
X170180Y25146D01*
X169926Y25400D02*
X139700Y25400D01*
X127000Y38100D01*
X127000Y45466D01*
X178562Y94996D02*
X166624Y106934D01*
X165100Y106934D01*
X114300Y61468D02*
X114300Y45466D01*
X114300Y61468D02*
X117094Y64262D01*
X133858Y64262D01*
X139446Y58674D01*
X139446Y47498D01*
X139560Y45680D01*
X139700Y45466D02*
X140208Y45720D01*
X139560Y45680D01*
X114300Y106934D02*
X114300Y125730D01*
X125476Y136906D01*
X131064Y136906D01*
X139446Y128524D01*
X139446Y108966D01*
X139573Y106934D01*
X139700Y106934D02*
X140208Y106680D01*
X139573Y106934D01*
M02*
