G04 EAGLE Gerber RS-274X export*
G75*
%MOMM*%
%FSLAX34Y34*%
%LPD*%
%IN*%
%IPPOS*%
%AMOC8*
5,1,8,0,0,1.08239X$1,22.5*%
G01*
%ADD10C,0.254000*%


D10*
X0Y0D02*
X276100Y0D01*
X276100Y393600D01*
X0Y393600D01*
X0Y0D01*
X40400Y367764D02*
X40324Y366696D01*
X40171Y365635D01*
X39943Y364588D01*
X39641Y363560D01*
X39267Y362556D01*
X38822Y361581D01*
X38308Y360641D01*
X37729Y359740D01*
X37087Y358882D01*
X36385Y358072D01*
X35628Y357315D01*
X34818Y356613D01*
X33960Y355971D01*
X33059Y355392D01*
X32119Y354878D01*
X31144Y354433D01*
X30140Y354059D01*
X29112Y353757D01*
X28065Y353529D01*
X27004Y353376D01*
X25936Y353300D01*
X24864Y353300D01*
X23796Y353376D01*
X22735Y353529D01*
X21688Y353757D01*
X20660Y354059D01*
X19656Y354433D01*
X18681Y354878D01*
X17741Y355392D01*
X16840Y355971D01*
X15982Y356613D01*
X15172Y357315D01*
X14415Y358072D01*
X13713Y358882D01*
X13071Y359740D01*
X12492Y360641D01*
X11978Y361581D01*
X11533Y362556D01*
X11159Y363560D01*
X10857Y364588D01*
X10629Y365635D01*
X10476Y366696D01*
X10400Y367764D01*
X10400Y368836D01*
X10476Y369904D01*
X10629Y370965D01*
X10857Y372012D01*
X11159Y373040D01*
X11533Y374044D01*
X11978Y375019D01*
X12492Y375959D01*
X13071Y376860D01*
X13713Y377718D01*
X14415Y378528D01*
X15172Y379285D01*
X15982Y379987D01*
X16840Y380629D01*
X17741Y381208D01*
X18681Y381722D01*
X19656Y382167D01*
X20660Y382541D01*
X21688Y382843D01*
X22735Y383071D01*
X23796Y383224D01*
X24864Y383300D01*
X25936Y383300D01*
X27004Y383224D01*
X28065Y383071D01*
X29112Y382843D01*
X30140Y382541D01*
X31144Y382167D01*
X32119Y381722D01*
X33059Y381208D01*
X33960Y380629D01*
X34818Y379987D01*
X35628Y379285D01*
X36385Y378528D01*
X37087Y377718D01*
X37729Y376860D01*
X38308Y375959D01*
X38822Y375019D01*
X39267Y374044D01*
X39641Y373040D01*
X39943Y372012D01*
X40171Y370965D01*
X40324Y369904D01*
X40400Y368836D01*
X40400Y367764D01*
X167400Y228064D02*
X167324Y226996D01*
X167171Y225935D01*
X166943Y224888D01*
X166641Y223860D01*
X166267Y222856D01*
X165822Y221881D01*
X165308Y220941D01*
X164729Y220040D01*
X164087Y219182D01*
X163385Y218372D01*
X162628Y217615D01*
X161818Y216913D01*
X160960Y216271D01*
X160059Y215692D01*
X159119Y215178D01*
X158144Y214733D01*
X157140Y214359D01*
X156112Y214057D01*
X155065Y213829D01*
X154004Y213676D01*
X152936Y213600D01*
X151864Y213600D01*
X150796Y213676D01*
X149735Y213829D01*
X148688Y214057D01*
X147660Y214359D01*
X146656Y214733D01*
X145681Y215178D01*
X144741Y215692D01*
X143840Y216271D01*
X142982Y216913D01*
X142172Y217615D01*
X141415Y218372D01*
X140713Y219182D01*
X140071Y220040D01*
X139492Y220941D01*
X138978Y221881D01*
X138533Y222856D01*
X138159Y223860D01*
X137857Y224888D01*
X137629Y225935D01*
X137476Y226996D01*
X137400Y228064D01*
X137400Y229136D01*
X137476Y230204D01*
X137629Y231265D01*
X137857Y232312D01*
X138159Y233340D01*
X138533Y234344D01*
X138978Y235319D01*
X139492Y236259D01*
X140071Y237160D01*
X140713Y238018D01*
X141415Y238828D01*
X142172Y239585D01*
X142982Y240287D01*
X143840Y240929D01*
X144741Y241508D01*
X145681Y242022D01*
X146656Y242467D01*
X147660Y242841D01*
X148688Y243143D01*
X149735Y243371D01*
X150796Y243524D01*
X151864Y243600D01*
X152936Y243600D01*
X154004Y243524D01*
X155065Y243371D01*
X156112Y243143D01*
X157140Y242841D01*
X158144Y242467D01*
X159119Y242022D01*
X160059Y241508D01*
X160960Y240929D01*
X161818Y240287D01*
X162628Y239585D01*
X163385Y238828D01*
X164087Y238018D01*
X164729Y237160D01*
X165308Y236259D01*
X165822Y235319D01*
X166267Y234344D01*
X166641Y233340D01*
X166943Y232312D01*
X167171Y231265D01*
X167324Y230204D01*
X167400Y229136D01*
X167400Y228064D01*
M02*
