G04 EAGLE Gerber RS-274X export*
G75*
%MOMM*%
%FSLAX34Y34*%
%LPD*%
%INSilkscreen Top*%
%IPPOS*%
%AMOC8*
5,1,8,0,0,1.08239X$1,22.5*%
G01*
%ADD10C,0.050800*%
%ADD11C,0.101600*%
%ADD12C,0.076200*%
%ADD13C,0.152400*%
%ADD14C,0.127000*%
%ADD15C,0.203200*%


D10*
X4064Y99314D02*
X4064Y103806D01*
X5312Y103806D01*
X5381Y103804D01*
X5449Y103798D01*
X5517Y103789D01*
X5585Y103776D01*
X5652Y103759D01*
X5717Y103738D01*
X5782Y103714D01*
X5845Y103687D01*
X5906Y103656D01*
X5966Y103621D01*
X6023Y103584D01*
X6079Y103543D01*
X6132Y103499D01*
X6182Y103453D01*
X6230Y103403D01*
X6275Y103351D01*
X6318Y103297D01*
X6357Y103241D01*
X6393Y103182D01*
X6426Y103122D01*
X6455Y103059D01*
X6481Y102996D01*
X6503Y102931D01*
X6522Y102864D01*
X6537Y102797D01*
X6548Y102729D01*
X6556Y102661D01*
X6560Y102592D01*
X6560Y102524D01*
X6556Y102455D01*
X6548Y102387D01*
X6537Y102319D01*
X6522Y102252D01*
X6503Y102185D01*
X6481Y102120D01*
X6455Y102057D01*
X6426Y101994D01*
X6393Y101934D01*
X6357Y101875D01*
X6318Y101819D01*
X6275Y101765D01*
X6230Y101713D01*
X6182Y101663D01*
X6132Y101617D01*
X6079Y101573D01*
X6023Y101532D01*
X5966Y101495D01*
X5906Y101460D01*
X5845Y101429D01*
X5782Y101402D01*
X5717Y101378D01*
X5652Y101357D01*
X5585Y101340D01*
X5517Y101327D01*
X5449Y101318D01*
X5381Y101312D01*
X5312Y101310D01*
X4064Y101310D01*
X5561Y101310D02*
X6560Y99314D01*
X8282Y99314D02*
X11276Y103806D01*
X8282Y103806D02*
X11276Y99314D01*
X13181Y99314D02*
X13181Y103806D01*
X14429Y103806D01*
X14497Y103804D01*
X14564Y103799D01*
X14631Y103790D01*
X14697Y103777D01*
X14763Y103761D01*
X14827Y103741D01*
X14891Y103717D01*
X14953Y103691D01*
X15014Y103661D01*
X15072Y103627D01*
X15129Y103591D01*
X15184Y103552D01*
X15237Y103509D01*
X15287Y103464D01*
X15335Y103416D01*
X15380Y103366D01*
X15423Y103313D01*
X15462Y103258D01*
X15498Y103201D01*
X15532Y103143D01*
X15562Y103082D01*
X15588Y103020D01*
X15612Y102956D01*
X15632Y102892D01*
X15648Y102826D01*
X15661Y102760D01*
X15670Y102693D01*
X15675Y102626D01*
X15677Y102558D01*
X15677Y100562D01*
X15675Y100494D01*
X15670Y100427D01*
X15661Y100360D01*
X15648Y100294D01*
X15632Y100228D01*
X15612Y100164D01*
X15588Y100100D01*
X15562Y100038D01*
X15532Y99977D01*
X15498Y99919D01*
X15462Y99862D01*
X15423Y99807D01*
X15380Y99754D01*
X15335Y99704D01*
X15287Y99656D01*
X15237Y99611D01*
X15184Y99568D01*
X15129Y99529D01*
X15072Y99493D01*
X15014Y99459D01*
X14953Y99429D01*
X14891Y99403D01*
X14827Y99379D01*
X14763Y99359D01*
X14697Y99343D01*
X14631Y99330D01*
X14564Y99321D01*
X14497Y99316D01*
X14429Y99314D01*
X13181Y99314D01*
X5312Y78406D02*
X5312Y73914D01*
X4064Y78406D02*
X6560Y78406D01*
X11009Y78406D02*
X8014Y73914D01*
X11009Y73914D02*
X8014Y78406D01*
X12914Y78406D02*
X12914Y73914D01*
X12914Y78406D02*
X14162Y78406D01*
X14230Y78404D01*
X14297Y78399D01*
X14364Y78390D01*
X14430Y78377D01*
X14496Y78361D01*
X14560Y78341D01*
X14624Y78317D01*
X14686Y78291D01*
X14747Y78261D01*
X14805Y78227D01*
X14862Y78191D01*
X14917Y78152D01*
X14970Y78109D01*
X15020Y78064D01*
X15068Y78016D01*
X15113Y77966D01*
X15156Y77913D01*
X15195Y77858D01*
X15231Y77801D01*
X15265Y77743D01*
X15295Y77682D01*
X15321Y77620D01*
X15345Y77556D01*
X15365Y77492D01*
X15381Y77426D01*
X15394Y77360D01*
X15403Y77293D01*
X15408Y77226D01*
X15410Y77158D01*
X15409Y77158D02*
X15409Y75162D01*
X15410Y75162D02*
X15408Y75094D01*
X15403Y75027D01*
X15394Y74960D01*
X15381Y74894D01*
X15365Y74828D01*
X15345Y74764D01*
X15321Y74700D01*
X15295Y74638D01*
X15265Y74577D01*
X15231Y74519D01*
X15195Y74462D01*
X15156Y74407D01*
X15113Y74354D01*
X15068Y74304D01*
X15020Y74256D01*
X14970Y74211D01*
X14917Y74168D01*
X14862Y74129D01*
X14805Y74093D01*
X14747Y74059D01*
X14686Y74029D01*
X14624Y74003D01*
X14560Y73979D01*
X14496Y73959D01*
X14430Y73943D01*
X14364Y73930D01*
X14297Y73921D01*
X14230Y73916D01*
X14162Y73914D01*
X12914Y73914D01*
X4064Y53006D02*
X5561Y48514D01*
X7059Y53006D01*
X9518Y48514D02*
X10516Y48514D01*
X9518Y48514D02*
X9465Y48516D01*
X9411Y48522D01*
X9359Y48531D01*
X9307Y48544D01*
X9256Y48561D01*
X9207Y48582D01*
X9159Y48606D01*
X9113Y48633D01*
X9069Y48663D01*
X9028Y48697D01*
X8988Y48733D01*
X8952Y48773D01*
X8918Y48814D01*
X8888Y48858D01*
X8861Y48904D01*
X8837Y48952D01*
X8816Y49001D01*
X8799Y49052D01*
X8786Y49104D01*
X8777Y49156D01*
X8771Y49210D01*
X8769Y49263D01*
X8769Y50760D01*
X8771Y50813D01*
X8777Y50867D01*
X8786Y50919D01*
X8799Y50971D01*
X8816Y51022D01*
X8837Y51071D01*
X8861Y51119D01*
X8888Y51165D01*
X8918Y51209D01*
X8952Y51251D01*
X8988Y51290D01*
X9028Y51326D01*
X9069Y51360D01*
X9113Y51390D01*
X9159Y51417D01*
X9207Y51441D01*
X9256Y51462D01*
X9307Y51479D01*
X9359Y51492D01*
X9411Y51501D01*
X9465Y51507D01*
X9518Y51509D01*
X10516Y51509D01*
X12968Y48514D02*
X13966Y48514D01*
X12968Y48514D02*
X12915Y48516D01*
X12861Y48522D01*
X12809Y48531D01*
X12757Y48544D01*
X12706Y48561D01*
X12657Y48582D01*
X12609Y48606D01*
X12563Y48633D01*
X12519Y48663D01*
X12478Y48697D01*
X12438Y48733D01*
X12402Y48773D01*
X12368Y48814D01*
X12338Y48858D01*
X12311Y48904D01*
X12287Y48952D01*
X12266Y49001D01*
X12249Y49052D01*
X12236Y49104D01*
X12227Y49156D01*
X12221Y49210D01*
X12219Y49263D01*
X12219Y50760D01*
X12221Y50813D01*
X12227Y50867D01*
X12236Y50919D01*
X12249Y50971D01*
X12266Y51022D01*
X12287Y51071D01*
X12311Y51119D01*
X12338Y51165D01*
X12368Y51209D01*
X12402Y51251D01*
X12438Y51290D01*
X12478Y51326D01*
X12519Y51360D01*
X12563Y51390D01*
X12609Y51417D01*
X12657Y51441D01*
X12706Y51462D01*
X12757Y51479D01*
X12809Y51492D01*
X12861Y51501D01*
X12915Y51507D01*
X12968Y51509D01*
X13966Y51509D01*
X6560Y25610D02*
X5811Y25610D01*
X6560Y25610D02*
X6560Y23114D01*
X5062Y23114D01*
X5002Y23116D01*
X4942Y23121D01*
X4882Y23130D01*
X4823Y23143D01*
X4765Y23159D01*
X4708Y23179D01*
X4652Y23202D01*
X4598Y23228D01*
X4546Y23258D01*
X4495Y23291D01*
X4447Y23326D01*
X4400Y23365D01*
X4356Y23406D01*
X4315Y23450D01*
X4276Y23497D01*
X4241Y23545D01*
X4208Y23596D01*
X4178Y23648D01*
X4152Y23702D01*
X4129Y23758D01*
X4109Y23815D01*
X4093Y23873D01*
X4080Y23932D01*
X4071Y23992D01*
X4066Y24052D01*
X4064Y24112D01*
X4064Y26608D01*
X4066Y26671D01*
X4072Y26733D01*
X4082Y26795D01*
X4095Y26856D01*
X4113Y26916D01*
X4134Y26975D01*
X4159Y27033D01*
X4187Y27089D01*
X4219Y27143D01*
X4255Y27195D01*
X4293Y27244D01*
X4334Y27291D01*
X4379Y27335D01*
X4426Y27377D01*
X4475Y27415D01*
X4527Y27451D01*
X4581Y27483D01*
X4637Y27511D01*
X4695Y27536D01*
X4754Y27557D01*
X4814Y27575D01*
X4875Y27588D01*
X4937Y27598D01*
X4999Y27604D01*
X5062Y27606D01*
X6560Y27606D01*
X8864Y27606D02*
X8864Y23114D01*
X11360Y23114D02*
X8864Y27606D01*
X11360Y27606D02*
X11360Y23114D01*
X13664Y23114D02*
X13664Y27606D01*
X14912Y27606D01*
X14980Y27604D01*
X15047Y27599D01*
X15114Y27590D01*
X15180Y27577D01*
X15246Y27561D01*
X15310Y27541D01*
X15374Y27517D01*
X15436Y27491D01*
X15497Y27461D01*
X15555Y27427D01*
X15612Y27391D01*
X15667Y27352D01*
X15720Y27309D01*
X15770Y27264D01*
X15818Y27216D01*
X15863Y27166D01*
X15906Y27113D01*
X15945Y27058D01*
X15981Y27001D01*
X16015Y26943D01*
X16045Y26882D01*
X16071Y26820D01*
X16095Y26756D01*
X16115Y26692D01*
X16131Y26626D01*
X16144Y26560D01*
X16153Y26493D01*
X16158Y26426D01*
X16160Y26358D01*
X16159Y26358D02*
X16159Y24362D01*
X16160Y24362D02*
X16158Y24294D01*
X16153Y24227D01*
X16144Y24160D01*
X16131Y24094D01*
X16115Y24028D01*
X16095Y23964D01*
X16071Y23900D01*
X16045Y23838D01*
X16015Y23777D01*
X15981Y23719D01*
X15945Y23662D01*
X15906Y23607D01*
X15863Y23554D01*
X15818Y23504D01*
X15770Y23456D01*
X15720Y23411D01*
X15667Y23368D01*
X15612Y23329D01*
X15555Y23293D01*
X15497Y23259D01*
X15436Y23229D01*
X15374Y23203D01*
X15310Y23179D01*
X15246Y23159D01*
X15180Y23143D01*
X15114Y23130D01*
X15047Y23121D01*
X14980Y23116D01*
X14912Y23114D01*
X13664Y23114D01*
X209011Y25610D02*
X209760Y25610D01*
X209760Y23114D01*
X208262Y23114D01*
X208202Y23116D01*
X208142Y23121D01*
X208082Y23130D01*
X208023Y23143D01*
X207965Y23159D01*
X207908Y23179D01*
X207852Y23202D01*
X207798Y23228D01*
X207746Y23258D01*
X207695Y23291D01*
X207647Y23326D01*
X207600Y23365D01*
X207556Y23406D01*
X207515Y23450D01*
X207476Y23497D01*
X207441Y23545D01*
X207408Y23596D01*
X207378Y23648D01*
X207352Y23702D01*
X207329Y23758D01*
X207309Y23815D01*
X207293Y23873D01*
X207280Y23932D01*
X207271Y23992D01*
X207266Y24052D01*
X207264Y24112D01*
X207264Y26608D01*
X207266Y26671D01*
X207272Y26733D01*
X207282Y26795D01*
X207295Y26856D01*
X207313Y26916D01*
X207334Y26975D01*
X207359Y27033D01*
X207387Y27089D01*
X207419Y27143D01*
X207455Y27195D01*
X207493Y27244D01*
X207534Y27291D01*
X207579Y27335D01*
X207626Y27377D01*
X207675Y27415D01*
X207727Y27451D01*
X207781Y27483D01*
X207837Y27511D01*
X207895Y27536D01*
X207954Y27557D01*
X208014Y27575D01*
X208075Y27588D01*
X208137Y27598D01*
X208199Y27604D01*
X208262Y27606D01*
X209760Y27606D01*
X212064Y27606D02*
X212064Y23114D01*
X214560Y23114D02*
X212064Y27606D01*
X214560Y27606D02*
X214560Y23114D01*
X216864Y23114D02*
X216864Y27606D01*
X218112Y27606D01*
X218180Y27604D01*
X218247Y27599D01*
X218314Y27590D01*
X218380Y27577D01*
X218446Y27561D01*
X218510Y27541D01*
X218574Y27517D01*
X218636Y27491D01*
X218697Y27461D01*
X218755Y27427D01*
X218812Y27391D01*
X218867Y27352D01*
X218920Y27309D01*
X218970Y27264D01*
X219018Y27216D01*
X219063Y27166D01*
X219106Y27113D01*
X219145Y27058D01*
X219181Y27001D01*
X219215Y26943D01*
X219245Y26882D01*
X219271Y26820D01*
X219295Y26756D01*
X219315Y26692D01*
X219331Y26626D01*
X219344Y26560D01*
X219353Y26493D01*
X219358Y26426D01*
X219360Y26358D01*
X219359Y26358D02*
X219359Y24362D01*
X219360Y24362D02*
X219358Y24294D01*
X219353Y24227D01*
X219344Y24160D01*
X219331Y24094D01*
X219315Y24028D01*
X219295Y23964D01*
X219271Y23900D01*
X219245Y23838D01*
X219215Y23777D01*
X219181Y23719D01*
X219145Y23662D01*
X219106Y23607D01*
X219063Y23554D01*
X219018Y23504D01*
X218970Y23456D01*
X218920Y23411D01*
X218867Y23368D01*
X218812Y23329D01*
X218755Y23293D01*
X218697Y23259D01*
X218636Y23229D01*
X218574Y23203D01*
X218510Y23179D01*
X218446Y23159D01*
X218380Y23143D01*
X218314Y23130D01*
X218247Y23121D01*
X218180Y23116D01*
X218112Y23114D01*
X216864Y23114D01*
X208761Y48514D02*
X207264Y53006D01*
X210259Y53006D02*
X208761Y48514D01*
X212718Y48514D02*
X213716Y48514D01*
X212718Y48514D02*
X212665Y48516D01*
X212611Y48522D01*
X212559Y48531D01*
X212507Y48544D01*
X212456Y48561D01*
X212407Y48582D01*
X212359Y48606D01*
X212313Y48633D01*
X212269Y48663D01*
X212228Y48697D01*
X212188Y48733D01*
X212152Y48773D01*
X212118Y48814D01*
X212088Y48858D01*
X212061Y48904D01*
X212037Y48952D01*
X212016Y49001D01*
X211999Y49052D01*
X211986Y49104D01*
X211977Y49156D01*
X211971Y49210D01*
X211969Y49263D01*
X211969Y50760D01*
X211971Y50813D01*
X211977Y50867D01*
X211986Y50919D01*
X211999Y50971D01*
X212016Y51022D01*
X212037Y51071D01*
X212061Y51119D01*
X212088Y51165D01*
X212118Y51209D01*
X212152Y51251D01*
X212188Y51290D01*
X212228Y51326D01*
X212269Y51360D01*
X212313Y51390D01*
X212359Y51417D01*
X212407Y51441D01*
X212456Y51462D01*
X212507Y51479D01*
X212559Y51492D01*
X212611Y51501D01*
X212665Y51507D01*
X212718Y51509D01*
X213716Y51509D01*
X216168Y48514D02*
X217166Y48514D01*
X216168Y48514D02*
X216115Y48516D01*
X216061Y48522D01*
X216009Y48531D01*
X215957Y48544D01*
X215906Y48561D01*
X215857Y48582D01*
X215809Y48606D01*
X215763Y48633D01*
X215719Y48663D01*
X215678Y48697D01*
X215638Y48733D01*
X215602Y48773D01*
X215568Y48814D01*
X215538Y48858D01*
X215511Y48904D01*
X215487Y48952D01*
X215466Y49001D01*
X215449Y49052D01*
X215436Y49104D01*
X215427Y49156D01*
X215421Y49210D01*
X215419Y49263D01*
X215419Y50760D01*
X215421Y50813D01*
X215427Y50867D01*
X215436Y50919D01*
X215449Y50971D01*
X215466Y51022D01*
X215487Y51071D01*
X215511Y51119D01*
X215538Y51165D01*
X215568Y51209D01*
X215602Y51251D01*
X215638Y51290D01*
X215678Y51326D01*
X215719Y51360D01*
X215763Y51390D01*
X215809Y51417D01*
X215857Y51441D01*
X215906Y51462D01*
X215957Y51479D01*
X216009Y51492D01*
X216061Y51501D01*
X216115Y51507D01*
X216168Y51509D01*
X217166Y51509D01*
X218106Y82623D02*
X213614Y82623D01*
X213614Y83871D01*
X213616Y83940D01*
X213622Y84008D01*
X213631Y84076D01*
X213644Y84144D01*
X213661Y84211D01*
X213682Y84276D01*
X213706Y84341D01*
X213733Y84404D01*
X213764Y84465D01*
X213799Y84525D01*
X213836Y84582D01*
X213877Y84638D01*
X213921Y84691D01*
X213967Y84741D01*
X214017Y84789D01*
X214069Y84834D01*
X214123Y84877D01*
X214179Y84916D01*
X214238Y84952D01*
X214298Y84985D01*
X214361Y85014D01*
X214424Y85040D01*
X214489Y85062D01*
X214556Y85081D01*
X214623Y85096D01*
X214691Y85107D01*
X214759Y85115D01*
X214828Y85119D01*
X214896Y85119D01*
X214965Y85115D01*
X215033Y85107D01*
X215101Y85096D01*
X215168Y85081D01*
X215235Y85062D01*
X215300Y85040D01*
X215363Y85014D01*
X215426Y84985D01*
X215486Y84952D01*
X215545Y84916D01*
X215601Y84877D01*
X215655Y84834D01*
X215707Y84789D01*
X215757Y84741D01*
X215803Y84691D01*
X215847Y84638D01*
X215888Y84582D01*
X215925Y84525D01*
X215960Y84465D01*
X215991Y84404D01*
X216018Y84341D01*
X216042Y84276D01*
X216063Y84211D01*
X216080Y84144D01*
X216093Y84076D01*
X216102Y84008D01*
X216108Y83940D01*
X216110Y83871D01*
X216110Y82623D01*
X216110Y84121D02*
X218106Y85119D01*
X218106Y87251D02*
X218106Y89247D01*
X218106Y87251D02*
X213614Y87251D01*
X213614Y89247D01*
X215610Y88748D02*
X215610Y87251D01*
X218106Y91151D02*
X218106Y93147D01*
X218106Y91151D02*
X213614Y91151D01*
X213614Y93147D01*
X215610Y92648D02*
X215610Y91151D01*
X213614Y95040D02*
X218106Y95040D01*
X213614Y95040D02*
X213614Y96288D01*
X213616Y96356D01*
X213621Y96423D01*
X213630Y96490D01*
X213643Y96556D01*
X213659Y96622D01*
X213679Y96686D01*
X213703Y96750D01*
X213729Y96812D01*
X213759Y96873D01*
X213793Y96931D01*
X213829Y96988D01*
X213868Y97043D01*
X213911Y97096D01*
X213956Y97146D01*
X214004Y97194D01*
X214054Y97239D01*
X214107Y97282D01*
X214162Y97321D01*
X214219Y97357D01*
X214277Y97391D01*
X214338Y97421D01*
X214400Y97447D01*
X214464Y97471D01*
X214528Y97491D01*
X214594Y97507D01*
X214660Y97520D01*
X214727Y97529D01*
X214794Y97534D01*
X214862Y97536D01*
X216858Y97536D01*
X216926Y97534D01*
X216993Y97529D01*
X217060Y97520D01*
X217126Y97507D01*
X217192Y97491D01*
X217256Y97471D01*
X217320Y97447D01*
X217382Y97421D01*
X217443Y97391D01*
X217501Y97357D01*
X217558Y97321D01*
X217613Y97282D01*
X217666Y97239D01*
X217716Y97194D01*
X217764Y97146D01*
X217809Y97096D01*
X217852Y97043D01*
X217891Y96988D01*
X217927Y96931D01*
X217961Y96873D01*
X217991Y96812D01*
X218017Y96750D01*
X218041Y96686D01*
X218061Y96622D01*
X218077Y96556D01*
X218090Y96490D01*
X218099Y96423D01*
X218104Y96356D01*
X218106Y96288D01*
X218106Y95040D01*
D11*
X52540Y373888D02*
X49943Y385572D01*
X55136Y381677D02*
X52540Y373888D01*
X57733Y373888D02*
X55136Y381677D01*
X60329Y385572D02*
X57733Y373888D01*
X64661Y373888D02*
X64661Y381677D01*
X64337Y384923D02*
X64337Y385572D01*
X64986Y385572D01*
X64986Y384923D01*
X64337Y384923D01*
X69685Y381677D02*
X69685Y373888D01*
X69685Y381677D02*
X72930Y381677D01*
X73017Y381675D01*
X73105Y381669D01*
X73191Y381659D01*
X73278Y381646D01*
X73363Y381628D01*
X73448Y381607D01*
X73532Y381582D01*
X73614Y381553D01*
X73695Y381520D01*
X73775Y381484D01*
X73853Y381445D01*
X73929Y381401D01*
X74003Y381355D01*
X74074Y381305D01*
X74144Y381252D01*
X74211Y381196D01*
X74275Y381137D01*
X74337Y381076D01*
X74396Y381011D01*
X74452Y380944D01*
X74505Y380874D01*
X74555Y380803D01*
X74601Y380729D01*
X74645Y380653D01*
X74684Y380575D01*
X74720Y380495D01*
X74753Y380414D01*
X74782Y380332D01*
X74807Y380248D01*
X74828Y380163D01*
X74846Y380078D01*
X74859Y379991D01*
X74869Y379905D01*
X74875Y379817D01*
X74877Y379730D01*
X74877Y373888D01*
X85106Y373888D02*
X85106Y385572D01*
X85106Y373888D02*
X81860Y373888D01*
X81773Y373890D01*
X81685Y373896D01*
X81599Y373906D01*
X81512Y373919D01*
X81427Y373937D01*
X81342Y373958D01*
X81258Y373983D01*
X81176Y374012D01*
X81095Y374045D01*
X81015Y374081D01*
X80937Y374120D01*
X80861Y374164D01*
X80787Y374210D01*
X80716Y374260D01*
X80646Y374313D01*
X80579Y374369D01*
X80515Y374428D01*
X80453Y374490D01*
X80394Y374554D01*
X80338Y374621D01*
X80285Y374691D01*
X80235Y374762D01*
X80189Y374836D01*
X80145Y374912D01*
X80106Y374990D01*
X80070Y375070D01*
X80037Y375151D01*
X80008Y375233D01*
X79983Y375317D01*
X79962Y375402D01*
X79944Y375487D01*
X79931Y375574D01*
X79921Y375660D01*
X79915Y375748D01*
X79913Y375835D01*
X79913Y379730D01*
X79915Y379817D01*
X79921Y379905D01*
X79931Y379991D01*
X79944Y380078D01*
X79962Y380163D01*
X79983Y380248D01*
X80008Y380332D01*
X80037Y380414D01*
X80070Y380495D01*
X80106Y380575D01*
X80145Y380653D01*
X80189Y380729D01*
X80235Y380803D01*
X80285Y380874D01*
X80338Y380944D01*
X80394Y381011D01*
X80453Y381075D01*
X80515Y381137D01*
X80579Y381196D01*
X80646Y381252D01*
X80716Y381305D01*
X80787Y381355D01*
X80861Y381401D01*
X80937Y381445D01*
X81015Y381484D01*
X81095Y381520D01*
X81176Y381553D01*
X81258Y381582D01*
X81342Y381607D01*
X81427Y381628D01*
X81512Y381646D01*
X81599Y381659D01*
X81685Y381669D01*
X81773Y381675D01*
X81860Y381677D01*
X85106Y381677D01*
X90259Y379081D02*
X90259Y376484D01*
X90259Y379081D02*
X90261Y379182D01*
X90267Y379282D01*
X90277Y379382D01*
X90290Y379482D01*
X90308Y379581D01*
X90329Y379680D01*
X90354Y379777D01*
X90383Y379874D01*
X90416Y379969D01*
X90452Y380063D01*
X90492Y380155D01*
X90535Y380246D01*
X90582Y380335D01*
X90632Y380422D01*
X90686Y380508D01*
X90743Y380591D01*
X90803Y380671D01*
X90866Y380750D01*
X90933Y380826D01*
X91002Y380899D01*
X91074Y380969D01*
X91148Y381037D01*
X91225Y381102D01*
X91305Y381163D01*
X91387Y381222D01*
X91471Y381277D01*
X91557Y381329D01*
X91645Y381378D01*
X91735Y381423D01*
X91827Y381465D01*
X91920Y381503D01*
X92015Y381537D01*
X92110Y381568D01*
X92207Y381595D01*
X92305Y381618D01*
X92404Y381638D01*
X92504Y381653D01*
X92604Y381665D01*
X92704Y381673D01*
X92805Y381677D01*
X92905Y381677D01*
X93006Y381673D01*
X93106Y381665D01*
X93206Y381653D01*
X93306Y381638D01*
X93405Y381618D01*
X93503Y381595D01*
X93600Y381568D01*
X93695Y381537D01*
X93790Y381503D01*
X93883Y381465D01*
X93975Y381423D01*
X94065Y381378D01*
X94153Y381329D01*
X94239Y381277D01*
X94323Y381222D01*
X94405Y381163D01*
X94485Y381102D01*
X94562Y381037D01*
X94636Y380969D01*
X94708Y380899D01*
X94777Y380826D01*
X94844Y380750D01*
X94907Y380671D01*
X94967Y380591D01*
X95024Y380508D01*
X95078Y380422D01*
X95128Y380335D01*
X95175Y380246D01*
X95218Y380155D01*
X95258Y380063D01*
X95294Y379969D01*
X95327Y379874D01*
X95356Y379777D01*
X95381Y379680D01*
X95402Y379581D01*
X95420Y379482D01*
X95433Y379382D01*
X95443Y379282D01*
X95449Y379182D01*
X95451Y379081D01*
X95451Y376484D01*
X95449Y376383D01*
X95443Y376283D01*
X95433Y376183D01*
X95420Y376083D01*
X95402Y375984D01*
X95381Y375885D01*
X95356Y375788D01*
X95327Y375691D01*
X95294Y375596D01*
X95258Y375502D01*
X95218Y375410D01*
X95175Y375319D01*
X95128Y375230D01*
X95078Y375143D01*
X95024Y375057D01*
X94967Y374974D01*
X94907Y374894D01*
X94844Y374815D01*
X94777Y374739D01*
X94708Y374666D01*
X94636Y374596D01*
X94562Y374528D01*
X94485Y374463D01*
X94405Y374402D01*
X94323Y374343D01*
X94239Y374288D01*
X94153Y374236D01*
X94065Y374187D01*
X93975Y374142D01*
X93883Y374100D01*
X93790Y374062D01*
X93695Y374028D01*
X93600Y373997D01*
X93503Y373970D01*
X93405Y373947D01*
X93306Y373927D01*
X93206Y373912D01*
X93106Y373900D01*
X93006Y373892D01*
X92905Y373888D01*
X92805Y373888D01*
X92704Y373892D01*
X92604Y373900D01*
X92504Y373912D01*
X92404Y373927D01*
X92305Y373947D01*
X92207Y373970D01*
X92110Y373997D01*
X92015Y374028D01*
X91920Y374062D01*
X91827Y374100D01*
X91735Y374142D01*
X91645Y374187D01*
X91557Y374236D01*
X91471Y374288D01*
X91387Y374343D01*
X91305Y374402D01*
X91225Y374463D01*
X91148Y374528D01*
X91074Y374596D01*
X91002Y374666D01*
X90933Y374739D01*
X90866Y374815D01*
X90803Y374894D01*
X90743Y374974D01*
X90686Y375057D01*
X90632Y375143D01*
X90582Y375230D01*
X90535Y375319D01*
X90492Y375410D01*
X90452Y375502D01*
X90416Y375596D01*
X90383Y375691D01*
X90354Y375788D01*
X90329Y375885D01*
X90308Y375984D01*
X90290Y376083D01*
X90277Y376183D01*
X90267Y376283D01*
X90261Y376383D01*
X90259Y376484D01*
X100009Y381677D02*
X101957Y373888D01*
X103904Y379081D01*
X105851Y373888D01*
X107799Y381677D01*
X111976Y372590D02*
X117168Y386870D01*
X121994Y385572D02*
X121994Y373888D01*
X121994Y385572D02*
X125240Y385572D01*
X125353Y385570D01*
X125466Y385564D01*
X125579Y385554D01*
X125692Y385540D01*
X125804Y385523D01*
X125915Y385501D01*
X126025Y385476D01*
X126135Y385446D01*
X126243Y385413D01*
X126350Y385376D01*
X126456Y385336D01*
X126560Y385291D01*
X126663Y385243D01*
X126764Y385192D01*
X126863Y385137D01*
X126960Y385079D01*
X127055Y385017D01*
X127148Y384952D01*
X127238Y384884D01*
X127326Y384813D01*
X127412Y384738D01*
X127495Y384661D01*
X127575Y384581D01*
X127652Y384498D01*
X127727Y384412D01*
X127798Y384324D01*
X127866Y384234D01*
X127931Y384141D01*
X127993Y384046D01*
X128051Y383949D01*
X128106Y383850D01*
X128157Y383749D01*
X128205Y383646D01*
X128250Y383542D01*
X128290Y383436D01*
X128327Y383329D01*
X128360Y383221D01*
X128390Y383111D01*
X128415Y383001D01*
X128437Y382890D01*
X128454Y382778D01*
X128468Y382665D01*
X128478Y382552D01*
X128484Y382439D01*
X128486Y382326D01*
X128486Y377134D01*
X128484Y377021D01*
X128478Y376908D01*
X128468Y376795D01*
X128454Y376682D01*
X128437Y376570D01*
X128415Y376459D01*
X128390Y376349D01*
X128360Y376239D01*
X128327Y376131D01*
X128290Y376024D01*
X128250Y375918D01*
X128205Y375814D01*
X128157Y375711D01*
X128106Y375610D01*
X128051Y375511D01*
X127993Y375414D01*
X127931Y375319D01*
X127866Y375226D01*
X127798Y375136D01*
X127727Y375048D01*
X127652Y374962D01*
X127575Y374879D01*
X127495Y374799D01*
X127412Y374722D01*
X127326Y374647D01*
X127238Y374576D01*
X127148Y374508D01*
X127055Y374443D01*
X126960Y374381D01*
X126863Y374323D01*
X126764Y374268D01*
X126663Y374217D01*
X126560Y374169D01*
X126456Y374124D01*
X126350Y374084D01*
X126243Y374047D01*
X126135Y374014D01*
X126025Y373984D01*
X125915Y373959D01*
X125804Y373937D01*
X125692Y373920D01*
X125579Y373906D01*
X125466Y373896D01*
X125353Y373890D01*
X125240Y373888D01*
X121994Y373888D01*
X133693Y376484D02*
X133693Y379081D01*
X133695Y379182D01*
X133701Y379282D01*
X133711Y379382D01*
X133724Y379482D01*
X133742Y379581D01*
X133763Y379680D01*
X133788Y379777D01*
X133817Y379874D01*
X133850Y379969D01*
X133886Y380063D01*
X133926Y380155D01*
X133969Y380246D01*
X134016Y380335D01*
X134066Y380422D01*
X134120Y380508D01*
X134177Y380591D01*
X134237Y380671D01*
X134300Y380750D01*
X134367Y380826D01*
X134436Y380899D01*
X134508Y380969D01*
X134582Y381037D01*
X134659Y381102D01*
X134739Y381163D01*
X134821Y381222D01*
X134905Y381277D01*
X134991Y381329D01*
X135079Y381378D01*
X135169Y381423D01*
X135261Y381465D01*
X135354Y381503D01*
X135449Y381537D01*
X135544Y381568D01*
X135641Y381595D01*
X135739Y381618D01*
X135838Y381638D01*
X135938Y381653D01*
X136038Y381665D01*
X136138Y381673D01*
X136239Y381677D01*
X136339Y381677D01*
X136440Y381673D01*
X136540Y381665D01*
X136640Y381653D01*
X136740Y381638D01*
X136839Y381618D01*
X136937Y381595D01*
X137034Y381568D01*
X137129Y381537D01*
X137224Y381503D01*
X137317Y381465D01*
X137409Y381423D01*
X137499Y381378D01*
X137587Y381329D01*
X137673Y381277D01*
X137757Y381222D01*
X137839Y381163D01*
X137919Y381102D01*
X137996Y381037D01*
X138070Y380969D01*
X138142Y380899D01*
X138211Y380826D01*
X138278Y380750D01*
X138341Y380671D01*
X138401Y380591D01*
X138458Y380508D01*
X138512Y380422D01*
X138562Y380335D01*
X138609Y380246D01*
X138652Y380155D01*
X138692Y380063D01*
X138728Y379969D01*
X138761Y379874D01*
X138790Y379777D01*
X138815Y379680D01*
X138836Y379581D01*
X138854Y379482D01*
X138867Y379382D01*
X138877Y379282D01*
X138883Y379182D01*
X138885Y379081D01*
X138885Y376484D01*
X138883Y376383D01*
X138877Y376283D01*
X138867Y376183D01*
X138854Y376083D01*
X138836Y375984D01*
X138815Y375885D01*
X138790Y375788D01*
X138761Y375691D01*
X138728Y375596D01*
X138692Y375502D01*
X138652Y375410D01*
X138609Y375319D01*
X138562Y375230D01*
X138512Y375143D01*
X138458Y375057D01*
X138401Y374974D01*
X138341Y374894D01*
X138278Y374815D01*
X138211Y374739D01*
X138142Y374666D01*
X138070Y374596D01*
X137996Y374528D01*
X137919Y374463D01*
X137839Y374402D01*
X137757Y374343D01*
X137673Y374288D01*
X137587Y374236D01*
X137499Y374187D01*
X137409Y374142D01*
X137317Y374100D01*
X137224Y374062D01*
X137129Y374028D01*
X137034Y373997D01*
X136937Y373970D01*
X136839Y373947D01*
X136740Y373927D01*
X136640Y373912D01*
X136540Y373900D01*
X136440Y373892D01*
X136339Y373888D01*
X136239Y373888D01*
X136138Y373892D01*
X136038Y373900D01*
X135938Y373912D01*
X135838Y373927D01*
X135739Y373947D01*
X135641Y373970D01*
X135544Y373997D01*
X135449Y374028D01*
X135354Y374062D01*
X135261Y374100D01*
X135169Y374142D01*
X135079Y374187D01*
X134991Y374236D01*
X134905Y374288D01*
X134821Y374343D01*
X134739Y374402D01*
X134659Y374463D01*
X134582Y374528D01*
X134508Y374596D01*
X134436Y374666D01*
X134367Y374739D01*
X134300Y374815D01*
X134237Y374894D01*
X134177Y374974D01*
X134120Y375057D01*
X134066Y375143D01*
X134016Y375230D01*
X133969Y375319D01*
X133926Y375410D01*
X133886Y375502D01*
X133850Y375596D01*
X133817Y375691D01*
X133788Y375788D01*
X133763Y375885D01*
X133742Y375984D01*
X133724Y376083D01*
X133711Y376183D01*
X133701Y376283D01*
X133695Y376383D01*
X133693Y376484D01*
X143599Y376484D02*
X143599Y379081D01*
X143601Y379182D01*
X143607Y379282D01*
X143617Y379382D01*
X143630Y379482D01*
X143648Y379581D01*
X143669Y379680D01*
X143694Y379777D01*
X143723Y379874D01*
X143756Y379969D01*
X143792Y380063D01*
X143832Y380155D01*
X143875Y380246D01*
X143922Y380335D01*
X143972Y380422D01*
X144026Y380508D01*
X144083Y380591D01*
X144143Y380671D01*
X144206Y380750D01*
X144273Y380826D01*
X144342Y380899D01*
X144414Y380969D01*
X144488Y381037D01*
X144565Y381102D01*
X144645Y381163D01*
X144727Y381222D01*
X144811Y381277D01*
X144897Y381329D01*
X144985Y381378D01*
X145075Y381423D01*
X145167Y381465D01*
X145260Y381503D01*
X145355Y381537D01*
X145450Y381568D01*
X145547Y381595D01*
X145645Y381618D01*
X145744Y381638D01*
X145844Y381653D01*
X145944Y381665D01*
X146044Y381673D01*
X146145Y381677D01*
X146245Y381677D01*
X146346Y381673D01*
X146446Y381665D01*
X146546Y381653D01*
X146646Y381638D01*
X146745Y381618D01*
X146843Y381595D01*
X146940Y381568D01*
X147035Y381537D01*
X147130Y381503D01*
X147223Y381465D01*
X147315Y381423D01*
X147405Y381378D01*
X147493Y381329D01*
X147579Y381277D01*
X147663Y381222D01*
X147745Y381163D01*
X147825Y381102D01*
X147902Y381037D01*
X147976Y380969D01*
X148048Y380899D01*
X148117Y380826D01*
X148184Y380750D01*
X148247Y380671D01*
X148307Y380591D01*
X148364Y380508D01*
X148418Y380422D01*
X148468Y380335D01*
X148515Y380246D01*
X148558Y380155D01*
X148598Y380063D01*
X148634Y379969D01*
X148667Y379874D01*
X148696Y379777D01*
X148721Y379680D01*
X148742Y379581D01*
X148760Y379482D01*
X148773Y379382D01*
X148783Y379282D01*
X148789Y379182D01*
X148791Y379081D01*
X148791Y376484D01*
X148789Y376383D01*
X148783Y376283D01*
X148773Y376183D01*
X148760Y376083D01*
X148742Y375984D01*
X148721Y375885D01*
X148696Y375788D01*
X148667Y375691D01*
X148634Y375596D01*
X148598Y375502D01*
X148558Y375410D01*
X148515Y375319D01*
X148468Y375230D01*
X148418Y375143D01*
X148364Y375057D01*
X148307Y374974D01*
X148247Y374894D01*
X148184Y374815D01*
X148117Y374739D01*
X148048Y374666D01*
X147976Y374596D01*
X147902Y374528D01*
X147825Y374463D01*
X147745Y374402D01*
X147663Y374343D01*
X147579Y374288D01*
X147493Y374236D01*
X147405Y374187D01*
X147315Y374142D01*
X147223Y374100D01*
X147130Y374062D01*
X147035Y374028D01*
X146940Y373997D01*
X146843Y373970D01*
X146745Y373947D01*
X146646Y373927D01*
X146546Y373912D01*
X146446Y373900D01*
X146346Y373892D01*
X146245Y373888D01*
X146145Y373888D01*
X146044Y373892D01*
X145944Y373900D01*
X145844Y373912D01*
X145744Y373927D01*
X145645Y373947D01*
X145547Y373970D01*
X145450Y373997D01*
X145355Y374028D01*
X145260Y374062D01*
X145167Y374100D01*
X145075Y374142D01*
X144985Y374187D01*
X144897Y374236D01*
X144811Y374288D01*
X144727Y374343D01*
X144645Y374402D01*
X144565Y374463D01*
X144488Y374528D01*
X144414Y374596D01*
X144342Y374666D01*
X144273Y374739D01*
X144206Y374815D01*
X144143Y374894D01*
X144083Y374974D01*
X144026Y375057D01*
X143972Y375143D01*
X143922Y375230D01*
X143875Y375319D01*
X143832Y375410D01*
X143792Y375502D01*
X143756Y375596D01*
X143723Y375691D01*
X143694Y375788D01*
X143669Y375885D01*
X143648Y375984D01*
X143630Y376083D01*
X143617Y376183D01*
X143607Y376283D01*
X143601Y376383D01*
X143599Y376484D01*
X153952Y373888D02*
X153952Y381677D01*
X157847Y381677D01*
X157847Y380379D01*
X170278Y373888D02*
X172874Y373888D01*
X170278Y373888D02*
X170179Y373890D01*
X170079Y373896D01*
X169980Y373905D01*
X169882Y373918D01*
X169784Y373935D01*
X169686Y373956D01*
X169590Y373981D01*
X169495Y374009D01*
X169401Y374041D01*
X169308Y374076D01*
X169216Y374115D01*
X169126Y374158D01*
X169038Y374203D01*
X168951Y374253D01*
X168867Y374305D01*
X168784Y374361D01*
X168704Y374419D01*
X168626Y374481D01*
X168551Y374546D01*
X168478Y374614D01*
X168408Y374684D01*
X168340Y374757D01*
X168275Y374832D01*
X168213Y374910D01*
X168155Y374990D01*
X168099Y375073D01*
X168047Y375157D01*
X167997Y375244D01*
X167952Y375332D01*
X167909Y375422D01*
X167870Y375514D01*
X167835Y375607D01*
X167803Y375701D01*
X167775Y375796D01*
X167750Y375892D01*
X167729Y375990D01*
X167712Y376088D01*
X167699Y376186D01*
X167690Y376285D01*
X167684Y376385D01*
X167682Y376484D01*
X167681Y376484D02*
X167681Y382976D01*
X167682Y382976D02*
X167684Y383075D01*
X167690Y383175D01*
X167699Y383274D01*
X167712Y383372D01*
X167729Y383470D01*
X167750Y383568D01*
X167775Y383664D01*
X167803Y383759D01*
X167835Y383853D01*
X167870Y383946D01*
X167909Y384038D01*
X167952Y384128D01*
X167997Y384216D01*
X168047Y384303D01*
X168099Y384387D01*
X168155Y384470D01*
X168213Y384550D01*
X168275Y384628D01*
X168340Y384703D01*
X168408Y384776D01*
X168478Y384846D01*
X168551Y384914D01*
X168626Y384979D01*
X168704Y385041D01*
X168784Y385099D01*
X168867Y385155D01*
X168951Y385207D01*
X169038Y385257D01*
X169126Y385302D01*
X169216Y385345D01*
X169308Y385384D01*
X169400Y385419D01*
X169495Y385451D01*
X169590Y385479D01*
X169686Y385504D01*
X169784Y385525D01*
X169882Y385542D01*
X169980Y385555D01*
X170079Y385564D01*
X170179Y385570D01*
X170278Y385572D01*
X172874Y385572D01*
X177127Y379081D02*
X177127Y376484D01*
X177127Y379081D02*
X177129Y379182D01*
X177135Y379282D01*
X177145Y379382D01*
X177158Y379482D01*
X177176Y379581D01*
X177197Y379680D01*
X177222Y379777D01*
X177251Y379874D01*
X177284Y379969D01*
X177320Y380063D01*
X177360Y380155D01*
X177403Y380246D01*
X177450Y380335D01*
X177500Y380422D01*
X177554Y380508D01*
X177611Y380591D01*
X177671Y380671D01*
X177734Y380750D01*
X177801Y380826D01*
X177870Y380899D01*
X177942Y380969D01*
X178016Y381037D01*
X178093Y381102D01*
X178173Y381163D01*
X178255Y381222D01*
X178339Y381277D01*
X178425Y381329D01*
X178513Y381378D01*
X178603Y381423D01*
X178695Y381465D01*
X178788Y381503D01*
X178883Y381537D01*
X178978Y381568D01*
X179075Y381595D01*
X179173Y381618D01*
X179272Y381638D01*
X179372Y381653D01*
X179472Y381665D01*
X179572Y381673D01*
X179673Y381677D01*
X179773Y381677D01*
X179874Y381673D01*
X179974Y381665D01*
X180074Y381653D01*
X180174Y381638D01*
X180273Y381618D01*
X180371Y381595D01*
X180468Y381568D01*
X180563Y381537D01*
X180658Y381503D01*
X180751Y381465D01*
X180843Y381423D01*
X180933Y381378D01*
X181021Y381329D01*
X181107Y381277D01*
X181191Y381222D01*
X181273Y381163D01*
X181353Y381102D01*
X181430Y381037D01*
X181504Y380969D01*
X181576Y380899D01*
X181645Y380826D01*
X181712Y380750D01*
X181775Y380671D01*
X181835Y380591D01*
X181892Y380508D01*
X181946Y380422D01*
X181996Y380335D01*
X182043Y380246D01*
X182086Y380155D01*
X182126Y380063D01*
X182162Y379969D01*
X182195Y379874D01*
X182224Y379777D01*
X182249Y379680D01*
X182270Y379581D01*
X182288Y379482D01*
X182301Y379382D01*
X182311Y379282D01*
X182317Y379182D01*
X182319Y379081D01*
X182319Y376484D01*
X182317Y376383D01*
X182311Y376283D01*
X182301Y376183D01*
X182288Y376083D01*
X182270Y375984D01*
X182249Y375885D01*
X182224Y375788D01*
X182195Y375691D01*
X182162Y375596D01*
X182126Y375502D01*
X182086Y375410D01*
X182043Y375319D01*
X181996Y375230D01*
X181946Y375143D01*
X181892Y375057D01*
X181835Y374974D01*
X181775Y374894D01*
X181712Y374815D01*
X181645Y374739D01*
X181576Y374666D01*
X181504Y374596D01*
X181430Y374528D01*
X181353Y374463D01*
X181273Y374402D01*
X181191Y374343D01*
X181107Y374288D01*
X181021Y374236D01*
X180933Y374187D01*
X180843Y374142D01*
X180751Y374100D01*
X180658Y374062D01*
X180563Y374028D01*
X180468Y373997D01*
X180371Y373970D01*
X180273Y373947D01*
X180174Y373927D01*
X180074Y373912D01*
X179974Y373900D01*
X179874Y373892D01*
X179773Y373888D01*
X179673Y373888D01*
X179572Y373892D01*
X179472Y373900D01*
X179372Y373912D01*
X179272Y373927D01*
X179173Y373947D01*
X179075Y373970D01*
X178978Y373997D01*
X178883Y374028D01*
X178788Y374062D01*
X178695Y374100D01*
X178603Y374142D01*
X178513Y374187D01*
X178425Y374236D01*
X178339Y374288D01*
X178255Y374343D01*
X178173Y374402D01*
X178093Y374463D01*
X178016Y374528D01*
X177942Y374596D01*
X177870Y374666D01*
X177801Y374739D01*
X177734Y374815D01*
X177671Y374894D01*
X177611Y374974D01*
X177554Y375057D01*
X177500Y375143D01*
X177450Y375230D01*
X177403Y375319D01*
X177360Y375410D01*
X177320Y375502D01*
X177284Y375596D01*
X177251Y375691D01*
X177222Y375788D01*
X177197Y375885D01*
X177176Y375984D01*
X177158Y376083D01*
X177145Y376183D01*
X177135Y376283D01*
X177129Y376383D01*
X177127Y376484D01*
X187414Y373888D02*
X187414Y381677D01*
X190659Y381677D01*
X190746Y381675D01*
X190834Y381669D01*
X190920Y381659D01*
X191007Y381646D01*
X191092Y381628D01*
X191177Y381607D01*
X191261Y381582D01*
X191343Y381553D01*
X191424Y381520D01*
X191504Y381484D01*
X191582Y381445D01*
X191658Y381401D01*
X191732Y381355D01*
X191803Y381305D01*
X191873Y381252D01*
X191940Y381196D01*
X192004Y381137D01*
X192066Y381076D01*
X192125Y381011D01*
X192181Y380944D01*
X192234Y380874D01*
X192284Y380803D01*
X192330Y380729D01*
X192374Y380653D01*
X192413Y380575D01*
X192449Y380495D01*
X192482Y380414D01*
X192511Y380332D01*
X192536Y380248D01*
X192557Y380163D01*
X192575Y380078D01*
X192588Y379991D01*
X192598Y379905D01*
X192604Y379817D01*
X192606Y379730D01*
X192606Y373888D01*
X196733Y381677D02*
X200628Y381677D01*
X198031Y385572D02*
X198031Y375835D01*
X198032Y375835D02*
X198034Y375748D01*
X198040Y375660D01*
X198050Y375574D01*
X198063Y375487D01*
X198081Y375402D01*
X198102Y375317D01*
X198127Y375233D01*
X198156Y375151D01*
X198189Y375070D01*
X198225Y374990D01*
X198264Y374912D01*
X198308Y374836D01*
X198354Y374762D01*
X198404Y374691D01*
X198457Y374621D01*
X198513Y374554D01*
X198572Y374490D01*
X198634Y374428D01*
X198698Y374369D01*
X198765Y374313D01*
X198835Y374260D01*
X198906Y374210D01*
X198980Y374164D01*
X199056Y374120D01*
X199134Y374081D01*
X199214Y374045D01*
X199295Y374012D01*
X199377Y373983D01*
X199461Y373958D01*
X199546Y373937D01*
X199631Y373919D01*
X199718Y373906D01*
X199804Y373896D01*
X199892Y373890D01*
X199979Y373888D01*
X200628Y373888D01*
X207152Y378432D02*
X210073Y378432D01*
X207152Y378432D02*
X207058Y378430D01*
X206964Y378424D01*
X206871Y378415D01*
X206778Y378401D01*
X206686Y378384D01*
X206594Y378362D01*
X206504Y378338D01*
X206414Y378309D01*
X206326Y378277D01*
X206239Y378241D01*
X206154Y378201D01*
X206071Y378158D01*
X205989Y378112D01*
X205909Y378062D01*
X205832Y378009D01*
X205757Y377953D01*
X205684Y377894D01*
X205613Y377832D01*
X205545Y377767D01*
X205480Y377699D01*
X205418Y377628D01*
X205359Y377555D01*
X205303Y377480D01*
X205250Y377403D01*
X205200Y377323D01*
X205154Y377241D01*
X205111Y377158D01*
X205071Y377073D01*
X205035Y376986D01*
X205003Y376898D01*
X204974Y376808D01*
X204950Y376718D01*
X204928Y376626D01*
X204911Y376534D01*
X204897Y376441D01*
X204888Y376348D01*
X204882Y376254D01*
X204880Y376160D01*
X204882Y376066D01*
X204888Y375972D01*
X204897Y375879D01*
X204911Y375786D01*
X204928Y375694D01*
X204950Y375602D01*
X204974Y375512D01*
X205003Y375422D01*
X205035Y375334D01*
X205071Y375247D01*
X205111Y375162D01*
X205154Y375079D01*
X205200Y374997D01*
X205250Y374917D01*
X205303Y374840D01*
X205359Y374765D01*
X205418Y374692D01*
X205480Y374621D01*
X205545Y374553D01*
X205613Y374488D01*
X205684Y374426D01*
X205757Y374367D01*
X205832Y374311D01*
X205909Y374258D01*
X205989Y374208D01*
X206071Y374162D01*
X206154Y374119D01*
X206239Y374079D01*
X206326Y374043D01*
X206414Y374011D01*
X206504Y373982D01*
X206594Y373958D01*
X206686Y373936D01*
X206778Y373919D01*
X206871Y373905D01*
X206964Y373896D01*
X207058Y373890D01*
X207152Y373888D01*
X210073Y373888D01*
X210073Y379730D01*
X210071Y379817D01*
X210065Y379905D01*
X210055Y379991D01*
X210042Y380078D01*
X210024Y380163D01*
X210003Y380248D01*
X209978Y380332D01*
X209949Y380414D01*
X209916Y380495D01*
X209880Y380575D01*
X209841Y380653D01*
X209797Y380729D01*
X209751Y380803D01*
X209701Y380874D01*
X209648Y380944D01*
X209592Y381011D01*
X209533Y381075D01*
X209471Y381137D01*
X209407Y381196D01*
X209340Y381252D01*
X209270Y381305D01*
X209199Y381355D01*
X209125Y381401D01*
X209049Y381445D01*
X208971Y381484D01*
X208891Y381520D01*
X208810Y381553D01*
X208728Y381582D01*
X208644Y381607D01*
X208559Y381628D01*
X208474Y381646D01*
X208387Y381659D01*
X208301Y381669D01*
X208213Y381675D01*
X208126Y381677D01*
X205530Y381677D01*
X217187Y373888D02*
X219784Y373888D01*
X217187Y373888D02*
X217100Y373890D01*
X217012Y373896D01*
X216926Y373906D01*
X216839Y373919D01*
X216754Y373937D01*
X216669Y373958D01*
X216585Y373983D01*
X216503Y374012D01*
X216422Y374045D01*
X216342Y374081D01*
X216264Y374120D01*
X216188Y374164D01*
X216114Y374210D01*
X216043Y374260D01*
X215973Y374313D01*
X215906Y374369D01*
X215842Y374428D01*
X215780Y374490D01*
X215721Y374554D01*
X215665Y374621D01*
X215612Y374691D01*
X215562Y374762D01*
X215516Y374836D01*
X215472Y374912D01*
X215433Y374990D01*
X215397Y375070D01*
X215364Y375151D01*
X215335Y375233D01*
X215310Y375317D01*
X215289Y375402D01*
X215271Y375487D01*
X215258Y375574D01*
X215248Y375660D01*
X215242Y375748D01*
X215240Y375835D01*
X215240Y379730D01*
X215242Y379817D01*
X215248Y379905D01*
X215258Y379991D01*
X215271Y380078D01*
X215289Y380163D01*
X215310Y380248D01*
X215335Y380332D01*
X215364Y380414D01*
X215397Y380495D01*
X215433Y380575D01*
X215472Y380653D01*
X215516Y380729D01*
X215562Y380803D01*
X215612Y380874D01*
X215665Y380944D01*
X215721Y381011D01*
X215780Y381075D01*
X215842Y381137D01*
X215906Y381196D01*
X215973Y381252D01*
X216043Y381305D01*
X216114Y381355D01*
X216188Y381401D01*
X216264Y381445D01*
X216342Y381484D01*
X216422Y381520D01*
X216503Y381553D01*
X216585Y381582D01*
X216669Y381607D01*
X216754Y381628D01*
X216839Y381646D01*
X216926Y381659D01*
X217012Y381669D01*
X217100Y381675D01*
X217187Y381677D01*
X219784Y381677D01*
X223022Y381677D02*
X226917Y381677D01*
X224320Y385572D02*
X224320Y375835D01*
X224321Y375835D02*
X224323Y375748D01*
X224329Y375660D01*
X224339Y375574D01*
X224352Y375487D01*
X224370Y375402D01*
X224391Y375317D01*
X224416Y375233D01*
X224445Y375151D01*
X224478Y375070D01*
X224514Y374990D01*
X224553Y374912D01*
X224597Y374836D01*
X224643Y374762D01*
X224693Y374691D01*
X224746Y374621D01*
X224802Y374554D01*
X224861Y374490D01*
X224923Y374428D01*
X224987Y374369D01*
X225054Y374313D01*
X225124Y374260D01*
X225195Y374210D01*
X225269Y374164D01*
X225345Y374120D01*
X225423Y374081D01*
X225503Y374045D01*
X225584Y374012D01*
X225666Y373983D01*
X225750Y373958D01*
X225835Y373937D01*
X225920Y373919D01*
X226007Y373906D01*
X226093Y373896D01*
X226181Y373890D01*
X226268Y373888D01*
X226917Y373888D01*
D12*
X107951Y13589D02*
X107951Y6223D01*
X111225Y6223D01*
X114197Y7451D02*
X114197Y11134D01*
X114197Y7451D02*
X114199Y7382D01*
X114205Y7314D01*
X114214Y7245D01*
X114228Y7178D01*
X114245Y7111D01*
X114266Y7045D01*
X114290Y6981D01*
X114319Y6918D01*
X114350Y6857D01*
X114385Y6798D01*
X114423Y6740D01*
X114465Y6685D01*
X114509Y6633D01*
X114557Y6583D01*
X114607Y6535D01*
X114659Y6491D01*
X114714Y6449D01*
X114772Y6411D01*
X114831Y6376D01*
X114892Y6345D01*
X114955Y6316D01*
X115019Y6292D01*
X115085Y6271D01*
X115152Y6254D01*
X115219Y6240D01*
X115288Y6231D01*
X115356Y6225D01*
X115425Y6223D01*
X117471Y6223D01*
X117471Y11134D01*
X121119Y13589D02*
X121119Y6223D01*
X121119Y8678D02*
X124393Y11134D01*
X122551Y9701D02*
X124393Y6223D01*
X128512Y9088D02*
X130353Y9088D01*
X128512Y9087D02*
X128437Y9085D01*
X128362Y9079D01*
X128288Y9069D01*
X128214Y9056D01*
X128141Y9038D01*
X128069Y9017D01*
X127999Y8992D01*
X127930Y8963D01*
X127862Y8931D01*
X127796Y8895D01*
X127732Y8856D01*
X127670Y8814D01*
X127611Y8768D01*
X127554Y8719D01*
X127499Y8668D01*
X127448Y8613D01*
X127399Y8556D01*
X127353Y8497D01*
X127311Y8435D01*
X127272Y8371D01*
X127236Y8305D01*
X127204Y8237D01*
X127175Y8168D01*
X127150Y8098D01*
X127129Y8026D01*
X127111Y7953D01*
X127098Y7879D01*
X127088Y7805D01*
X127082Y7730D01*
X127080Y7655D01*
X127082Y7580D01*
X127088Y7505D01*
X127098Y7431D01*
X127111Y7357D01*
X127129Y7284D01*
X127150Y7212D01*
X127175Y7142D01*
X127204Y7073D01*
X127236Y7005D01*
X127272Y6939D01*
X127311Y6875D01*
X127353Y6813D01*
X127399Y6754D01*
X127448Y6697D01*
X127499Y6642D01*
X127554Y6591D01*
X127611Y6542D01*
X127670Y6496D01*
X127732Y6454D01*
X127796Y6415D01*
X127862Y6379D01*
X127930Y6347D01*
X127999Y6318D01*
X128069Y6293D01*
X128141Y6272D01*
X128214Y6254D01*
X128288Y6241D01*
X128362Y6231D01*
X128437Y6225D01*
X128512Y6223D01*
X130353Y6223D01*
X130353Y9906D01*
X130354Y9906D02*
X130352Y9975D01*
X130346Y10043D01*
X130337Y10112D01*
X130323Y10179D01*
X130306Y10246D01*
X130285Y10312D01*
X130261Y10376D01*
X130232Y10439D01*
X130201Y10500D01*
X130166Y10559D01*
X130128Y10617D01*
X130086Y10672D01*
X130042Y10724D01*
X129994Y10774D01*
X129944Y10822D01*
X129892Y10866D01*
X129837Y10908D01*
X129779Y10946D01*
X129720Y10981D01*
X129659Y11012D01*
X129596Y11041D01*
X129532Y11065D01*
X129466Y11086D01*
X129399Y11103D01*
X129332Y11117D01*
X129263Y11126D01*
X129195Y11132D01*
X129126Y11134D01*
X127489Y11134D01*
X134318Y9088D02*
X136364Y8269D01*
X134318Y9088D02*
X134259Y9113D01*
X134202Y9142D01*
X134147Y9175D01*
X134094Y9211D01*
X134043Y9249D01*
X133995Y9291D01*
X133949Y9336D01*
X133906Y9383D01*
X133866Y9433D01*
X133829Y9485D01*
X133795Y9540D01*
X133764Y9596D01*
X133737Y9654D01*
X133714Y9714D01*
X133694Y9774D01*
X133678Y9836D01*
X133665Y9899D01*
X133657Y9963D01*
X133652Y10026D01*
X133651Y10090D01*
X133654Y10154D01*
X133661Y10218D01*
X133672Y10281D01*
X133686Y10343D01*
X133704Y10405D01*
X133726Y10465D01*
X133751Y10524D01*
X133780Y10581D01*
X133813Y10636D01*
X133848Y10689D01*
X133887Y10740D01*
X133929Y10789D01*
X133973Y10835D01*
X134021Y10878D01*
X134070Y10918D01*
X134123Y10955D01*
X134177Y10989D01*
X134233Y11020D01*
X134291Y11047D01*
X134350Y11071D01*
X134411Y11090D01*
X134473Y11107D01*
X134536Y11119D01*
X134599Y11128D01*
X134663Y11133D01*
X134727Y11134D01*
X134863Y11130D01*
X134998Y11122D01*
X135134Y11110D01*
X135268Y11094D01*
X135403Y11074D01*
X135536Y11051D01*
X135669Y11023D01*
X135801Y10992D01*
X135932Y10957D01*
X136062Y10918D01*
X136191Y10875D01*
X136318Y10828D01*
X136444Y10778D01*
X136569Y10724D01*
X136364Y8269D02*
X136423Y8244D01*
X136480Y8215D01*
X136535Y8182D01*
X136588Y8146D01*
X136639Y8108D01*
X136687Y8066D01*
X136733Y8021D01*
X136776Y7974D01*
X136816Y7924D01*
X136853Y7872D01*
X136887Y7817D01*
X136918Y7761D01*
X136945Y7703D01*
X136968Y7643D01*
X136988Y7583D01*
X137004Y7521D01*
X137017Y7458D01*
X137025Y7394D01*
X137030Y7331D01*
X137031Y7267D01*
X137028Y7203D01*
X137021Y7139D01*
X137010Y7076D01*
X136996Y7014D01*
X136978Y6952D01*
X136956Y6892D01*
X136931Y6833D01*
X136902Y6776D01*
X136869Y6721D01*
X136834Y6668D01*
X136795Y6617D01*
X136753Y6568D01*
X136709Y6522D01*
X136661Y6479D01*
X136612Y6439D01*
X136559Y6402D01*
X136505Y6368D01*
X136449Y6337D01*
X136391Y6310D01*
X136332Y6286D01*
X136271Y6267D01*
X136209Y6250D01*
X136146Y6238D01*
X136083Y6229D01*
X136019Y6224D01*
X135955Y6223D01*
X135791Y6227D01*
X135627Y6235D01*
X135463Y6247D01*
X135300Y6263D01*
X135137Y6283D01*
X134974Y6306D01*
X134813Y6334D01*
X134651Y6365D01*
X134491Y6400D01*
X134332Y6439D01*
X134173Y6482D01*
X134016Y6528D01*
X133859Y6578D01*
X133704Y6632D01*
X144385Y6223D02*
X144385Y13589D01*
X146432Y13589D01*
X146521Y13587D01*
X146610Y13581D01*
X146699Y13571D01*
X146787Y13558D01*
X146875Y13541D01*
X146962Y13519D01*
X147047Y13494D01*
X147132Y13466D01*
X147215Y13433D01*
X147297Y13397D01*
X147377Y13358D01*
X147455Y13315D01*
X147531Y13269D01*
X147606Y13219D01*
X147678Y13166D01*
X147747Y13110D01*
X147814Y13051D01*
X147879Y12990D01*
X147940Y12925D01*
X147999Y12858D01*
X148055Y12789D01*
X148108Y12717D01*
X148158Y12642D01*
X148204Y12566D01*
X148247Y12488D01*
X148286Y12408D01*
X148322Y12326D01*
X148355Y12243D01*
X148383Y12158D01*
X148408Y12073D01*
X148430Y11986D01*
X148447Y11898D01*
X148460Y11810D01*
X148470Y11721D01*
X148476Y11632D01*
X148478Y11543D01*
X148476Y11454D01*
X148470Y11365D01*
X148460Y11276D01*
X148447Y11188D01*
X148430Y11100D01*
X148408Y11013D01*
X148383Y10928D01*
X148355Y10843D01*
X148322Y10760D01*
X148286Y10678D01*
X148247Y10598D01*
X148204Y10520D01*
X148158Y10444D01*
X148108Y10369D01*
X148055Y10297D01*
X147999Y10228D01*
X147940Y10161D01*
X147879Y10096D01*
X147814Y10035D01*
X147747Y9976D01*
X147678Y9920D01*
X147606Y9867D01*
X147531Y9817D01*
X147455Y9771D01*
X147377Y9728D01*
X147297Y9689D01*
X147215Y9653D01*
X147132Y9620D01*
X147047Y9592D01*
X146962Y9567D01*
X146875Y9545D01*
X146787Y9528D01*
X146699Y9515D01*
X146610Y9505D01*
X146521Y9499D01*
X146432Y9497D01*
X144385Y9497D01*
X151191Y11134D02*
X151191Y6223D01*
X150986Y13180D02*
X150986Y13589D01*
X151395Y13589D01*
X151395Y13180D01*
X150986Y13180D01*
X154431Y11134D02*
X154431Y6223D01*
X154431Y11134D02*
X156477Y11134D01*
X156546Y11132D01*
X156614Y11126D01*
X156683Y11117D01*
X156750Y11103D01*
X156817Y11086D01*
X156883Y11065D01*
X156947Y11041D01*
X157010Y11012D01*
X157071Y10981D01*
X157130Y10946D01*
X157188Y10908D01*
X157243Y10866D01*
X157295Y10822D01*
X157345Y10774D01*
X157393Y10724D01*
X157437Y10672D01*
X157479Y10617D01*
X157517Y10559D01*
X157552Y10500D01*
X157583Y10439D01*
X157612Y10376D01*
X157636Y10312D01*
X157657Y10246D01*
X157674Y10179D01*
X157688Y10112D01*
X157697Y10043D01*
X157703Y9975D01*
X157705Y9906D01*
X157704Y9906D02*
X157704Y6223D01*
X164247Y6223D02*
X164247Y13589D01*
X164247Y6223D02*
X162201Y6223D01*
X162132Y6225D01*
X162064Y6231D01*
X161995Y6240D01*
X161928Y6254D01*
X161861Y6271D01*
X161795Y6292D01*
X161731Y6316D01*
X161668Y6345D01*
X161607Y6376D01*
X161548Y6411D01*
X161490Y6449D01*
X161435Y6491D01*
X161383Y6535D01*
X161333Y6583D01*
X161285Y6633D01*
X161241Y6685D01*
X161199Y6740D01*
X161161Y6798D01*
X161126Y6857D01*
X161095Y6918D01*
X161066Y6981D01*
X161042Y7045D01*
X161021Y7111D01*
X161004Y7178D01*
X160990Y7245D01*
X160981Y7314D01*
X160975Y7382D01*
X160973Y7451D01*
X160973Y9906D01*
X160975Y9975D01*
X160981Y10043D01*
X160990Y10112D01*
X161004Y10179D01*
X161021Y10246D01*
X161042Y10312D01*
X161066Y10376D01*
X161095Y10439D01*
X161126Y10500D01*
X161161Y10559D01*
X161199Y10617D01*
X161241Y10672D01*
X161285Y10724D01*
X161333Y10774D01*
X161383Y10822D01*
X161435Y10866D01*
X161490Y10908D01*
X161548Y10946D01*
X161607Y10981D01*
X161668Y11012D01*
X161731Y11041D01*
X161795Y11065D01*
X161861Y11086D01*
X161928Y11103D01*
X161995Y11117D01*
X162064Y11126D01*
X162132Y11132D01*
X162201Y11134D01*
X164247Y11134D01*
X167681Y13589D02*
X167681Y7451D01*
X167683Y7382D01*
X167689Y7314D01*
X167698Y7245D01*
X167712Y7178D01*
X167729Y7111D01*
X167750Y7045D01*
X167774Y6981D01*
X167803Y6918D01*
X167834Y6857D01*
X167869Y6798D01*
X167907Y6740D01*
X167949Y6685D01*
X167993Y6633D01*
X168041Y6583D01*
X168091Y6535D01*
X168143Y6491D01*
X168198Y6449D01*
X168256Y6411D01*
X168315Y6376D01*
X168376Y6345D01*
X168439Y6316D01*
X168503Y6292D01*
X168569Y6271D01*
X168636Y6254D01*
X168703Y6240D01*
X168772Y6231D01*
X168840Y6225D01*
X168909Y6223D01*
D13*
X167640Y95758D02*
X86360Y95758D01*
X167640Y56642D02*
X167762Y56644D01*
X167884Y56650D01*
X168006Y56660D01*
X168127Y56673D01*
X168248Y56691D01*
X168368Y56712D01*
X168488Y56738D01*
X168606Y56767D01*
X168724Y56799D01*
X168841Y56836D01*
X168956Y56876D01*
X169070Y56920D01*
X169182Y56968D01*
X169293Y57019D01*
X169402Y57074D01*
X169510Y57132D01*
X169615Y57194D01*
X169718Y57259D01*
X169820Y57327D01*
X169919Y57399D01*
X170015Y57473D01*
X170110Y57551D01*
X170201Y57632D01*
X170291Y57715D01*
X170377Y57801D01*
X170460Y57891D01*
X170541Y57982D01*
X170619Y58077D01*
X170693Y58173D01*
X170765Y58272D01*
X170833Y58374D01*
X170898Y58477D01*
X170960Y58582D01*
X171018Y58690D01*
X171073Y58799D01*
X171124Y58910D01*
X171172Y59022D01*
X171216Y59136D01*
X171256Y59251D01*
X171293Y59368D01*
X171325Y59486D01*
X171354Y59604D01*
X171380Y59724D01*
X171401Y59844D01*
X171419Y59965D01*
X171432Y60086D01*
X171442Y60208D01*
X171448Y60330D01*
X171450Y60452D01*
X86360Y95758D02*
X86238Y95756D01*
X86116Y95750D01*
X85994Y95740D01*
X85873Y95727D01*
X85752Y95709D01*
X85632Y95688D01*
X85512Y95662D01*
X85394Y95633D01*
X85276Y95601D01*
X85159Y95564D01*
X85044Y95524D01*
X84930Y95480D01*
X84818Y95432D01*
X84707Y95381D01*
X84598Y95326D01*
X84490Y95268D01*
X84385Y95206D01*
X84282Y95141D01*
X84180Y95073D01*
X84081Y95001D01*
X83985Y94927D01*
X83890Y94849D01*
X83799Y94768D01*
X83709Y94685D01*
X83623Y94599D01*
X83540Y94509D01*
X83459Y94418D01*
X83381Y94323D01*
X83307Y94227D01*
X83235Y94128D01*
X83167Y94026D01*
X83102Y93923D01*
X83040Y93818D01*
X82982Y93710D01*
X82927Y93601D01*
X82876Y93490D01*
X82828Y93378D01*
X82784Y93264D01*
X82744Y93149D01*
X82707Y93032D01*
X82675Y92914D01*
X82646Y92796D01*
X82620Y92676D01*
X82599Y92556D01*
X82581Y92435D01*
X82568Y92314D01*
X82558Y92192D01*
X82552Y92070D01*
X82550Y91948D01*
X167640Y95758D02*
X167762Y95756D01*
X167884Y95750D01*
X168006Y95740D01*
X168127Y95727D01*
X168248Y95709D01*
X168368Y95688D01*
X168488Y95662D01*
X168606Y95633D01*
X168724Y95601D01*
X168841Y95564D01*
X168956Y95524D01*
X169070Y95480D01*
X169182Y95432D01*
X169293Y95381D01*
X169402Y95326D01*
X169510Y95268D01*
X169615Y95206D01*
X169718Y95141D01*
X169820Y95073D01*
X169919Y95001D01*
X170015Y94927D01*
X170110Y94849D01*
X170201Y94768D01*
X170291Y94685D01*
X170377Y94599D01*
X170460Y94509D01*
X170541Y94418D01*
X170619Y94323D01*
X170693Y94227D01*
X170765Y94128D01*
X170833Y94026D01*
X170898Y93923D01*
X170960Y93818D01*
X171018Y93710D01*
X171073Y93601D01*
X171124Y93490D01*
X171172Y93378D01*
X171216Y93264D01*
X171256Y93149D01*
X171293Y93032D01*
X171325Y92914D01*
X171354Y92796D01*
X171380Y92676D01*
X171401Y92556D01*
X171419Y92435D01*
X171432Y92314D01*
X171442Y92192D01*
X171448Y92070D01*
X171450Y91948D01*
X86360Y56642D02*
X86238Y56644D01*
X86116Y56650D01*
X85994Y56660D01*
X85873Y56673D01*
X85752Y56691D01*
X85632Y56712D01*
X85512Y56738D01*
X85394Y56767D01*
X85276Y56799D01*
X85159Y56836D01*
X85044Y56876D01*
X84930Y56920D01*
X84818Y56968D01*
X84707Y57019D01*
X84598Y57074D01*
X84490Y57132D01*
X84385Y57194D01*
X84282Y57259D01*
X84180Y57327D01*
X84081Y57399D01*
X83985Y57473D01*
X83890Y57551D01*
X83799Y57632D01*
X83709Y57715D01*
X83623Y57801D01*
X83540Y57891D01*
X83459Y57982D01*
X83381Y58077D01*
X83307Y58173D01*
X83235Y58272D01*
X83167Y58374D01*
X83102Y58477D01*
X83040Y58582D01*
X82982Y58690D01*
X82927Y58799D01*
X82876Y58910D01*
X82828Y59022D01*
X82784Y59136D01*
X82744Y59251D01*
X82707Y59368D01*
X82675Y59486D01*
X82646Y59604D01*
X82620Y59724D01*
X82599Y59844D01*
X82581Y59965D01*
X82568Y60086D01*
X82558Y60208D01*
X82552Y60330D01*
X82550Y60452D01*
X86360Y56642D02*
X167640Y56642D01*
X171450Y60452D02*
X171450Y91948D01*
X82550Y91948D02*
X82550Y81280D01*
X82550Y71120D01*
X82550Y60452D01*
X82550Y71120D02*
X82691Y71122D01*
X82832Y71128D01*
X82973Y71138D01*
X83114Y71151D01*
X83254Y71169D01*
X83393Y71191D01*
X83532Y71216D01*
X83671Y71245D01*
X83808Y71278D01*
X83944Y71315D01*
X84079Y71356D01*
X84214Y71400D01*
X84346Y71448D01*
X84478Y71500D01*
X84608Y71555D01*
X84736Y71614D01*
X84863Y71677D01*
X84987Y71743D01*
X85110Y71812D01*
X85231Y71885D01*
X85350Y71961D01*
X85467Y72041D01*
X85581Y72124D01*
X85694Y72209D01*
X85803Y72298D01*
X85911Y72390D01*
X86015Y72485D01*
X86117Y72583D01*
X86216Y72684D01*
X86313Y72787D01*
X86406Y72893D01*
X86496Y73001D01*
X86584Y73112D01*
X86668Y73225D01*
X86749Y73341D01*
X86827Y73459D01*
X86902Y73579D01*
X86973Y73701D01*
X87041Y73825D01*
X87105Y73951D01*
X87166Y74078D01*
X87223Y74207D01*
X87276Y74338D01*
X87326Y74470D01*
X87373Y74603D01*
X87415Y74738D01*
X87454Y74874D01*
X87489Y75011D01*
X87520Y75148D01*
X87547Y75287D01*
X87571Y75426D01*
X87590Y75566D01*
X87606Y75706D01*
X87618Y75847D01*
X87626Y75988D01*
X87630Y76129D01*
X87630Y76271D01*
X87626Y76412D01*
X87618Y76553D01*
X87606Y76694D01*
X87590Y76834D01*
X87571Y76974D01*
X87547Y77113D01*
X87520Y77252D01*
X87489Y77389D01*
X87454Y77526D01*
X87415Y77662D01*
X87373Y77797D01*
X87326Y77930D01*
X87276Y78062D01*
X87223Y78193D01*
X87166Y78322D01*
X87105Y78449D01*
X87041Y78575D01*
X86973Y78699D01*
X86902Y78821D01*
X86827Y78941D01*
X86749Y79059D01*
X86668Y79175D01*
X86584Y79288D01*
X86496Y79399D01*
X86406Y79507D01*
X86313Y79613D01*
X86216Y79716D01*
X86117Y79817D01*
X86015Y79915D01*
X85911Y80010D01*
X85803Y80102D01*
X85694Y80191D01*
X85581Y80276D01*
X85467Y80359D01*
X85350Y80439D01*
X85231Y80515D01*
X85110Y80588D01*
X84987Y80657D01*
X84863Y80723D01*
X84736Y80786D01*
X84608Y80845D01*
X84478Y80900D01*
X84346Y80952D01*
X84214Y81000D01*
X84079Y81044D01*
X83944Y81085D01*
X83808Y81122D01*
X83671Y81155D01*
X83532Y81184D01*
X83393Y81209D01*
X83254Y81231D01*
X83114Y81249D01*
X82973Y81262D01*
X82832Y81272D01*
X82691Y81278D01*
X82550Y81280D01*
X82550Y60198D02*
X171450Y60198D01*
X78740Y165100D02*
X76200Y167640D01*
X78740Y165100D02*
X76200Y162560D01*
X99060Y165100D02*
X101600Y167640D01*
X99060Y165100D02*
X101600Y162560D01*
X101600Y142240D01*
X99060Y139700D01*
X101600Y187960D02*
X99060Y190500D01*
X101600Y187960D02*
X101600Y167640D01*
X99060Y190500D02*
X78740Y190500D01*
X76200Y187960D01*
X76200Y167640D01*
X76200Y162560D02*
X76200Y142240D01*
X78740Y139700D01*
X99060Y139700D01*
D14*
X98096Y196215D02*
X98096Y205105D01*
X98096Y196215D02*
X98094Y196115D01*
X98088Y196016D01*
X98078Y195916D01*
X98065Y195818D01*
X98047Y195719D01*
X98026Y195622D01*
X98001Y195526D01*
X97972Y195430D01*
X97939Y195336D01*
X97903Y195243D01*
X97863Y195152D01*
X97819Y195062D01*
X97772Y194974D01*
X97722Y194888D01*
X97668Y194804D01*
X97611Y194722D01*
X97551Y194643D01*
X97487Y194565D01*
X97421Y194491D01*
X97352Y194419D01*
X97280Y194350D01*
X97206Y194284D01*
X97128Y194220D01*
X97049Y194160D01*
X96967Y194103D01*
X96883Y194049D01*
X96797Y193999D01*
X96709Y193952D01*
X96619Y193908D01*
X96528Y193868D01*
X96435Y193832D01*
X96341Y193799D01*
X96245Y193770D01*
X96149Y193745D01*
X96052Y193724D01*
X95953Y193706D01*
X95855Y193693D01*
X95755Y193683D01*
X95656Y193677D01*
X95556Y193675D01*
X94286Y193675D01*
X104077Y193675D02*
X104077Y205105D01*
X107252Y205105D01*
X107363Y205103D01*
X107473Y205097D01*
X107584Y205088D01*
X107694Y205074D01*
X107803Y205057D01*
X107912Y205036D01*
X108020Y205011D01*
X108127Y204982D01*
X108233Y204950D01*
X108338Y204914D01*
X108441Y204874D01*
X108543Y204831D01*
X108644Y204784D01*
X108743Y204733D01*
X108840Y204680D01*
X108934Y204623D01*
X109027Y204562D01*
X109118Y204499D01*
X109207Y204432D01*
X109293Y204362D01*
X109376Y204289D01*
X109458Y204214D01*
X109536Y204136D01*
X109611Y204054D01*
X109684Y203971D01*
X109754Y203885D01*
X109821Y203796D01*
X109884Y203705D01*
X109945Y203612D01*
X110002Y203517D01*
X110055Y203421D01*
X110106Y203322D01*
X110153Y203221D01*
X110196Y203119D01*
X110236Y203016D01*
X110272Y202911D01*
X110304Y202805D01*
X110333Y202698D01*
X110358Y202590D01*
X110379Y202481D01*
X110396Y202372D01*
X110410Y202262D01*
X110419Y202151D01*
X110425Y202041D01*
X110427Y201930D01*
X110425Y201819D01*
X110419Y201709D01*
X110410Y201598D01*
X110396Y201488D01*
X110379Y201379D01*
X110358Y201270D01*
X110333Y201162D01*
X110304Y201055D01*
X110272Y200949D01*
X110236Y200844D01*
X110196Y200741D01*
X110153Y200639D01*
X110106Y200538D01*
X110055Y200439D01*
X110002Y200342D01*
X109945Y200248D01*
X109884Y200155D01*
X109821Y200064D01*
X109754Y199975D01*
X109684Y199889D01*
X109611Y199806D01*
X109536Y199724D01*
X109458Y199646D01*
X109376Y199571D01*
X109293Y199498D01*
X109207Y199428D01*
X109118Y199361D01*
X109027Y199298D01*
X108934Y199237D01*
X108839Y199180D01*
X108743Y199127D01*
X108644Y199076D01*
X108543Y199029D01*
X108441Y198986D01*
X108338Y198946D01*
X108233Y198910D01*
X108127Y198878D01*
X108020Y198849D01*
X107912Y198824D01*
X107803Y198803D01*
X107694Y198786D01*
X107584Y198772D01*
X107473Y198763D01*
X107363Y198757D01*
X107252Y198755D01*
X104077Y198755D01*
X114935Y202565D02*
X118110Y205105D01*
X118110Y193675D01*
X114935Y193675D02*
X121285Y193675D01*
D13*
X177800Y167640D02*
X180340Y165100D01*
X177800Y162560D01*
X200660Y165100D02*
X203200Y167640D01*
X200660Y165100D02*
X203200Y162560D01*
X203200Y142240D01*
X200660Y139700D01*
X203200Y187960D02*
X200660Y190500D01*
X203200Y187960D02*
X203200Y167640D01*
X200660Y190500D02*
X180340Y190500D01*
X177800Y187960D01*
X177800Y167640D01*
X177800Y162560D02*
X177800Y142240D01*
X180340Y139700D01*
X200660Y139700D01*
D14*
X179376Y203835D02*
X179376Y212725D01*
X179376Y203835D02*
X179374Y203735D01*
X179368Y203636D01*
X179358Y203536D01*
X179345Y203438D01*
X179327Y203339D01*
X179306Y203242D01*
X179281Y203146D01*
X179252Y203050D01*
X179219Y202956D01*
X179183Y202863D01*
X179143Y202772D01*
X179099Y202682D01*
X179052Y202594D01*
X179002Y202508D01*
X178948Y202424D01*
X178891Y202342D01*
X178831Y202263D01*
X178767Y202185D01*
X178701Y202111D01*
X178632Y202039D01*
X178560Y201970D01*
X178486Y201904D01*
X178408Y201840D01*
X178329Y201780D01*
X178247Y201723D01*
X178163Y201669D01*
X178077Y201619D01*
X177989Y201572D01*
X177899Y201528D01*
X177808Y201488D01*
X177715Y201452D01*
X177621Y201419D01*
X177525Y201390D01*
X177429Y201365D01*
X177332Y201344D01*
X177233Y201326D01*
X177135Y201313D01*
X177035Y201303D01*
X176936Y201297D01*
X176836Y201295D01*
X175566Y201295D01*
X185357Y201295D02*
X185357Y212725D01*
X188532Y212725D01*
X188643Y212723D01*
X188753Y212717D01*
X188864Y212708D01*
X188974Y212694D01*
X189083Y212677D01*
X189192Y212656D01*
X189300Y212631D01*
X189407Y212602D01*
X189513Y212570D01*
X189618Y212534D01*
X189721Y212494D01*
X189823Y212451D01*
X189924Y212404D01*
X190023Y212353D01*
X190120Y212300D01*
X190214Y212243D01*
X190307Y212182D01*
X190398Y212119D01*
X190487Y212052D01*
X190573Y211982D01*
X190656Y211909D01*
X190738Y211834D01*
X190816Y211756D01*
X190891Y211674D01*
X190964Y211591D01*
X191034Y211505D01*
X191101Y211416D01*
X191164Y211325D01*
X191225Y211232D01*
X191282Y211137D01*
X191335Y211041D01*
X191386Y210942D01*
X191433Y210841D01*
X191476Y210739D01*
X191516Y210636D01*
X191552Y210531D01*
X191584Y210425D01*
X191613Y210318D01*
X191638Y210210D01*
X191659Y210101D01*
X191676Y209992D01*
X191690Y209882D01*
X191699Y209771D01*
X191705Y209661D01*
X191707Y209550D01*
X191705Y209439D01*
X191699Y209329D01*
X191690Y209218D01*
X191676Y209108D01*
X191659Y208999D01*
X191638Y208890D01*
X191613Y208782D01*
X191584Y208675D01*
X191552Y208569D01*
X191516Y208464D01*
X191476Y208361D01*
X191433Y208259D01*
X191386Y208158D01*
X191335Y208059D01*
X191282Y207962D01*
X191225Y207868D01*
X191164Y207775D01*
X191101Y207684D01*
X191034Y207595D01*
X190964Y207509D01*
X190891Y207426D01*
X190816Y207344D01*
X190738Y207266D01*
X190656Y207191D01*
X190573Y207118D01*
X190487Y207048D01*
X190398Y206981D01*
X190307Y206918D01*
X190214Y206857D01*
X190119Y206800D01*
X190023Y206747D01*
X189924Y206696D01*
X189823Y206649D01*
X189721Y206606D01*
X189618Y206566D01*
X189513Y206530D01*
X189407Y206498D01*
X189300Y206469D01*
X189192Y206444D01*
X189083Y206423D01*
X188974Y206406D01*
X188864Y206392D01*
X188753Y206383D01*
X188643Y206377D01*
X188532Y206375D01*
X185357Y206375D01*
X199708Y212726D02*
X199812Y212724D01*
X199917Y212718D01*
X200021Y212709D01*
X200124Y212696D01*
X200227Y212678D01*
X200329Y212658D01*
X200431Y212633D01*
X200531Y212605D01*
X200631Y212573D01*
X200729Y212537D01*
X200826Y212498D01*
X200921Y212456D01*
X201015Y212410D01*
X201107Y212360D01*
X201197Y212308D01*
X201285Y212252D01*
X201371Y212192D01*
X201455Y212130D01*
X201536Y212065D01*
X201615Y211997D01*
X201692Y211925D01*
X201765Y211852D01*
X201837Y211775D01*
X201905Y211696D01*
X201970Y211615D01*
X202032Y211531D01*
X202092Y211445D01*
X202148Y211357D01*
X202200Y211267D01*
X202250Y211175D01*
X202296Y211081D01*
X202338Y210986D01*
X202377Y210889D01*
X202413Y210791D01*
X202445Y210691D01*
X202473Y210591D01*
X202498Y210489D01*
X202518Y210387D01*
X202536Y210284D01*
X202549Y210181D01*
X202558Y210077D01*
X202564Y209972D01*
X202566Y209868D01*
X199708Y212725D02*
X199590Y212723D01*
X199471Y212717D01*
X199353Y212708D01*
X199236Y212695D01*
X199119Y212677D01*
X199002Y212657D01*
X198886Y212632D01*
X198771Y212604D01*
X198658Y212571D01*
X198545Y212536D01*
X198433Y212496D01*
X198323Y212454D01*
X198214Y212407D01*
X198106Y212357D01*
X198001Y212304D01*
X197897Y212247D01*
X197795Y212187D01*
X197695Y212124D01*
X197597Y212057D01*
X197501Y211988D01*
X197408Y211915D01*
X197317Y211839D01*
X197228Y211761D01*
X197142Y211679D01*
X197059Y211595D01*
X196978Y211509D01*
X196901Y211419D01*
X196826Y211328D01*
X196754Y211234D01*
X196685Y211137D01*
X196620Y211039D01*
X196557Y210938D01*
X196498Y210835D01*
X196442Y210731D01*
X196390Y210625D01*
X196341Y210517D01*
X196296Y210408D01*
X196254Y210297D01*
X196216Y210185D01*
X201613Y207646D02*
X201689Y207721D01*
X201764Y207800D01*
X201835Y207881D01*
X201904Y207965D01*
X201969Y208051D01*
X202031Y208139D01*
X202091Y208229D01*
X202147Y208321D01*
X202200Y208416D01*
X202249Y208512D01*
X202295Y208610D01*
X202338Y208709D01*
X202377Y208810D01*
X202412Y208912D01*
X202444Y209015D01*
X202472Y209119D01*
X202497Y209224D01*
X202518Y209331D01*
X202535Y209437D01*
X202548Y209544D01*
X202557Y209652D01*
X202563Y209760D01*
X202565Y209868D01*
X201613Y207645D02*
X196215Y201295D01*
X202565Y201295D01*
D13*
X50800Y57150D02*
X44450Y63500D01*
X50800Y57150D02*
X50800Y44450D01*
X44450Y38100D01*
X31750Y38100D01*
X25400Y44450D01*
X25400Y57150D01*
X31750Y63500D01*
X50800Y95250D02*
X50800Y107950D01*
X50800Y95250D02*
X44450Y88900D01*
X31750Y88900D01*
X25400Y95250D01*
X44450Y88900D02*
X50800Y82550D01*
X50800Y69850D01*
X44450Y63500D01*
X31750Y63500D01*
X25400Y69850D01*
X25400Y82550D01*
X31750Y88900D01*
X31750Y114300D02*
X44450Y114300D01*
X50800Y107950D01*
X31750Y114300D02*
X25400Y107950D01*
X25400Y95250D01*
X50800Y31750D02*
X50800Y19050D01*
X44450Y12700D01*
X31750Y12700D01*
X25400Y19050D01*
X44450Y38100D02*
X50800Y31750D01*
X31750Y38100D02*
X25400Y31750D01*
X25400Y19050D01*
X247650Y63500D02*
X254000Y57150D01*
X254000Y44450D01*
X247650Y38100D01*
X234950Y38100D01*
X228600Y44450D01*
X228600Y57150D01*
X234950Y63500D01*
X254000Y95250D02*
X254000Y107950D01*
X254000Y95250D02*
X247650Y88900D01*
X234950Y88900D01*
X228600Y95250D01*
X247650Y88900D02*
X254000Y82550D01*
X254000Y69850D01*
X247650Y63500D01*
X234950Y63500D01*
X228600Y69850D01*
X228600Y82550D01*
X234950Y88900D01*
X234950Y114300D02*
X247650Y114300D01*
X254000Y107950D01*
X234950Y114300D02*
X228600Y107950D01*
X228600Y95250D01*
X254000Y31750D02*
X254000Y19050D01*
X247650Y12700D01*
X234950Y12700D01*
X228600Y19050D01*
X247650Y38100D02*
X254000Y31750D01*
X234950Y38100D02*
X228600Y31750D01*
X228600Y19050D01*
D11*
X130302Y145288D02*
X118618Y145288D01*
X118618Y148534D01*
X118620Y148647D01*
X118626Y148760D01*
X118636Y148873D01*
X118650Y148986D01*
X118667Y149098D01*
X118689Y149209D01*
X118714Y149319D01*
X118744Y149429D01*
X118777Y149537D01*
X118814Y149644D01*
X118854Y149750D01*
X118899Y149854D01*
X118947Y149957D01*
X118998Y150058D01*
X119053Y150157D01*
X119111Y150254D01*
X119173Y150349D01*
X119238Y150442D01*
X119306Y150532D01*
X119377Y150620D01*
X119452Y150706D01*
X119529Y150789D01*
X119609Y150869D01*
X119692Y150946D01*
X119778Y151021D01*
X119866Y151092D01*
X119956Y151160D01*
X120049Y151225D01*
X120144Y151287D01*
X120241Y151345D01*
X120340Y151400D01*
X120441Y151451D01*
X120544Y151499D01*
X120648Y151544D01*
X120754Y151584D01*
X120861Y151621D01*
X120969Y151654D01*
X121079Y151684D01*
X121189Y151709D01*
X121300Y151731D01*
X121412Y151748D01*
X121525Y151762D01*
X121638Y151772D01*
X121751Y151778D01*
X121864Y151780D01*
X121977Y151778D01*
X122090Y151772D01*
X122203Y151762D01*
X122316Y151748D01*
X122428Y151731D01*
X122539Y151709D01*
X122649Y151684D01*
X122759Y151654D01*
X122867Y151621D01*
X122974Y151584D01*
X123080Y151544D01*
X123184Y151499D01*
X123287Y151451D01*
X123388Y151400D01*
X123487Y151345D01*
X123584Y151287D01*
X123679Y151225D01*
X123772Y151160D01*
X123862Y151092D01*
X123950Y151021D01*
X124036Y150946D01*
X124119Y150869D01*
X124199Y150789D01*
X124276Y150706D01*
X124351Y150620D01*
X124422Y150532D01*
X124490Y150442D01*
X124555Y150349D01*
X124617Y150254D01*
X124675Y150157D01*
X124730Y150058D01*
X124781Y149957D01*
X124829Y149854D01*
X124874Y149750D01*
X124914Y149644D01*
X124951Y149537D01*
X124984Y149429D01*
X125014Y149319D01*
X125039Y149209D01*
X125061Y149098D01*
X125078Y148986D01*
X125092Y148873D01*
X125102Y148760D01*
X125108Y148647D01*
X125110Y148534D01*
X125109Y148534D02*
X125109Y145288D01*
X125109Y149183D02*
X130302Y151779D01*
X121214Y156644D02*
X118618Y159890D01*
X130302Y159890D01*
X130302Y163135D02*
X130302Y156644D01*
X27432Y158175D02*
X15748Y158175D01*
X15748Y161420D01*
X15750Y161533D01*
X15756Y161646D01*
X15766Y161759D01*
X15780Y161872D01*
X15797Y161984D01*
X15819Y162095D01*
X15844Y162205D01*
X15874Y162315D01*
X15907Y162423D01*
X15944Y162530D01*
X15984Y162636D01*
X16029Y162740D01*
X16077Y162843D01*
X16128Y162944D01*
X16183Y163043D01*
X16241Y163140D01*
X16303Y163235D01*
X16368Y163328D01*
X16436Y163418D01*
X16507Y163506D01*
X16582Y163592D01*
X16659Y163675D01*
X16739Y163755D01*
X16822Y163832D01*
X16908Y163907D01*
X16996Y163978D01*
X17086Y164046D01*
X17179Y164111D01*
X17274Y164173D01*
X17371Y164231D01*
X17470Y164286D01*
X17571Y164337D01*
X17674Y164385D01*
X17778Y164430D01*
X17884Y164470D01*
X17991Y164507D01*
X18099Y164540D01*
X18209Y164570D01*
X18319Y164595D01*
X18430Y164617D01*
X18542Y164634D01*
X18655Y164648D01*
X18768Y164658D01*
X18881Y164664D01*
X18994Y164666D01*
X19107Y164664D01*
X19220Y164658D01*
X19333Y164648D01*
X19446Y164634D01*
X19558Y164617D01*
X19669Y164595D01*
X19779Y164570D01*
X19889Y164540D01*
X19997Y164507D01*
X20104Y164470D01*
X20210Y164430D01*
X20314Y164385D01*
X20417Y164337D01*
X20518Y164286D01*
X20617Y164231D01*
X20714Y164173D01*
X20809Y164111D01*
X20902Y164046D01*
X20992Y163978D01*
X21080Y163907D01*
X21166Y163832D01*
X21249Y163755D01*
X21329Y163675D01*
X21406Y163592D01*
X21481Y163506D01*
X21552Y163418D01*
X21620Y163328D01*
X21685Y163235D01*
X21747Y163140D01*
X21805Y163043D01*
X21860Y162944D01*
X21911Y162843D01*
X21959Y162740D01*
X22004Y162636D01*
X22044Y162530D01*
X22081Y162423D01*
X22114Y162315D01*
X22144Y162205D01*
X22169Y162095D01*
X22191Y161984D01*
X22208Y161872D01*
X22222Y161759D01*
X22232Y161646D01*
X22238Y161533D01*
X22240Y161420D01*
X22239Y161420D02*
X22239Y158175D01*
X22239Y162069D02*
X27432Y164666D01*
X18669Y176022D02*
X18562Y176020D01*
X18456Y176014D01*
X18350Y176004D01*
X18244Y175991D01*
X18138Y175973D01*
X18034Y175952D01*
X17930Y175927D01*
X17827Y175898D01*
X17726Y175866D01*
X17626Y175829D01*
X17527Y175789D01*
X17429Y175746D01*
X17333Y175699D01*
X17239Y175648D01*
X17147Y175594D01*
X17057Y175537D01*
X16969Y175477D01*
X16884Y175413D01*
X16801Y175346D01*
X16720Y175276D01*
X16642Y175204D01*
X16566Y175128D01*
X16494Y175050D01*
X16424Y174969D01*
X16357Y174886D01*
X16293Y174801D01*
X16233Y174713D01*
X16176Y174623D01*
X16122Y174531D01*
X16071Y174437D01*
X16024Y174341D01*
X15981Y174243D01*
X15941Y174144D01*
X15904Y174044D01*
X15872Y173943D01*
X15843Y173840D01*
X15818Y173736D01*
X15797Y173632D01*
X15779Y173526D01*
X15766Y173420D01*
X15756Y173314D01*
X15750Y173208D01*
X15748Y173101D01*
X15750Y172980D01*
X15756Y172859D01*
X15766Y172739D01*
X15779Y172618D01*
X15797Y172499D01*
X15818Y172379D01*
X15843Y172261D01*
X15872Y172144D01*
X15905Y172027D01*
X15941Y171912D01*
X15982Y171798D01*
X16025Y171685D01*
X16073Y171573D01*
X16124Y171464D01*
X16179Y171356D01*
X16237Y171249D01*
X16298Y171145D01*
X16363Y171043D01*
X16431Y170943D01*
X16502Y170845D01*
X16576Y170749D01*
X16653Y170656D01*
X16734Y170566D01*
X16817Y170478D01*
X16903Y170393D01*
X16992Y170310D01*
X17083Y170231D01*
X17177Y170154D01*
X17273Y170081D01*
X17371Y170011D01*
X17472Y169944D01*
X17575Y169880D01*
X17680Y169820D01*
X17787Y169762D01*
X17895Y169709D01*
X18005Y169659D01*
X18117Y169613D01*
X18230Y169570D01*
X18345Y169531D01*
X20941Y175048D02*
X20863Y175127D01*
X20783Y175203D01*
X20700Y175276D01*
X20614Y175346D01*
X20527Y175413D01*
X20436Y175477D01*
X20344Y175537D01*
X20250Y175595D01*
X20153Y175649D01*
X20055Y175699D01*
X19955Y175746D01*
X19854Y175790D01*
X19751Y175830D01*
X19646Y175866D01*
X19541Y175898D01*
X19434Y175927D01*
X19327Y175952D01*
X19218Y175974D01*
X19109Y175991D01*
X19000Y176005D01*
X18890Y176014D01*
X18779Y176020D01*
X18669Y176022D01*
X20941Y175048D02*
X27432Y169531D01*
X27432Y176022D01*
X226568Y184658D02*
X238252Y184658D01*
X226568Y184658D02*
X226568Y187904D01*
X226570Y188017D01*
X226576Y188130D01*
X226586Y188243D01*
X226600Y188356D01*
X226617Y188468D01*
X226639Y188579D01*
X226664Y188689D01*
X226694Y188799D01*
X226727Y188907D01*
X226764Y189014D01*
X226804Y189120D01*
X226849Y189224D01*
X226897Y189327D01*
X226948Y189428D01*
X227003Y189527D01*
X227061Y189624D01*
X227123Y189719D01*
X227188Y189812D01*
X227256Y189902D01*
X227327Y189990D01*
X227402Y190076D01*
X227479Y190159D01*
X227559Y190239D01*
X227642Y190316D01*
X227728Y190391D01*
X227816Y190462D01*
X227906Y190530D01*
X227999Y190595D01*
X228094Y190657D01*
X228191Y190715D01*
X228290Y190770D01*
X228391Y190821D01*
X228494Y190869D01*
X228598Y190914D01*
X228704Y190954D01*
X228811Y190991D01*
X228919Y191024D01*
X229029Y191054D01*
X229139Y191079D01*
X229250Y191101D01*
X229362Y191118D01*
X229475Y191132D01*
X229588Y191142D01*
X229701Y191148D01*
X229814Y191150D01*
X229927Y191148D01*
X230040Y191142D01*
X230153Y191132D01*
X230266Y191118D01*
X230378Y191101D01*
X230489Y191079D01*
X230599Y191054D01*
X230709Y191024D01*
X230817Y190991D01*
X230924Y190954D01*
X231030Y190914D01*
X231134Y190869D01*
X231237Y190821D01*
X231338Y190770D01*
X231437Y190715D01*
X231534Y190657D01*
X231629Y190595D01*
X231722Y190530D01*
X231812Y190462D01*
X231900Y190391D01*
X231986Y190316D01*
X232069Y190239D01*
X232149Y190159D01*
X232226Y190076D01*
X232301Y189990D01*
X232372Y189902D01*
X232440Y189812D01*
X232505Y189719D01*
X232567Y189624D01*
X232625Y189527D01*
X232680Y189428D01*
X232731Y189327D01*
X232779Y189224D01*
X232824Y189120D01*
X232864Y189014D01*
X232901Y188907D01*
X232934Y188799D01*
X232964Y188689D01*
X232989Y188579D01*
X233011Y188468D01*
X233028Y188356D01*
X233042Y188243D01*
X233052Y188130D01*
X233058Y188017D01*
X233060Y187904D01*
X233059Y187904D02*
X233059Y184658D01*
X233059Y188553D02*
X238252Y191149D01*
X238252Y196014D02*
X238252Y199260D01*
X238250Y199373D01*
X238244Y199486D01*
X238234Y199599D01*
X238220Y199712D01*
X238203Y199824D01*
X238181Y199935D01*
X238156Y200045D01*
X238126Y200155D01*
X238093Y200263D01*
X238056Y200370D01*
X238016Y200476D01*
X237971Y200580D01*
X237923Y200683D01*
X237872Y200784D01*
X237817Y200883D01*
X237759Y200980D01*
X237697Y201075D01*
X237632Y201168D01*
X237564Y201258D01*
X237493Y201346D01*
X237418Y201432D01*
X237341Y201515D01*
X237261Y201595D01*
X237178Y201672D01*
X237092Y201747D01*
X237004Y201818D01*
X236914Y201886D01*
X236821Y201951D01*
X236726Y202013D01*
X236629Y202071D01*
X236530Y202126D01*
X236429Y202177D01*
X236326Y202225D01*
X236222Y202270D01*
X236116Y202310D01*
X236009Y202347D01*
X235901Y202380D01*
X235791Y202410D01*
X235681Y202435D01*
X235570Y202457D01*
X235458Y202474D01*
X235345Y202488D01*
X235232Y202498D01*
X235119Y202504D01*
X235006Y202506D01*
X234893Y202504D01*
X234780Y202498D01*
X234667Y202488D01*
X234554Y202474D01*
X234442Y202457D01*
X234331Y202435D01*
X234221Y202410D01*
X234111Y202380D01*
X234003Y202347D01*
X233896Y202310D01*
X233790Y202270D01*
X233686Y202225D01*
X233583Y202177D01*
X233482Y202126D01*
X233383Y202071D01*
X233286Y202013D01*
X233191Y201951D01*
X233098Y201886D01*
X233008Y201818D01*
X232920Y201747D01*
X232834Y201672D01*
X232751Y201595D01*
X232671Y201515D01*
X232594Y201432D01*
X232519Y201346D01*
X232448Y201258D01*
X232380Y201168D01*
X232315Y201075D01*
X232253Y200980D01*
X232195Y200883D01*
X232140Y200784D01*
X232089Y200683D01*
X232041Y200580D01*
X231996Y200476D01*
X231956Y200370D01*
X231919Y200263D01*
X231886Y200155D01*
X231856Y200045D01*
X231831Y199935D01*
X231809Y199824D01*
X231792Y199712D01*
X231778Y199599D01*
X231768Y199486D01*
X231762Y199373D01*
X231760Y199260D01*
X226568Y199909D02*
X226568Y196014D01*
X226568Y199909D02*
X226570Y200010D01*
X226576Y200110D01*
X226586Y200210D01*
X226599Y200310D01*
X226617Y200409D01*
X226638Y200508D01*
X226663Y200605D01*
X226692Y200702D01*
X226725Y200797D01*
X226761Y200891D01*
X226801Y200983D01*
X226844Y201074D01*
X226891Y201163D01*
X226941Y201250D01*
X226995Y201336D01*
X227052Y201419D01*
X227112Y201499D01*
X227175Y201578D01*
X227242Y201654D01*
X227311Y201727D01*
X227383Y201797D01*
X227457Y201865D01*
X227534Y201930D01*
X227614Y201991D01*
X227696Y202050D01*
X227780Y202105D01*
X227866Y202157D01*
X227954Y202206D01*
X228044Y202251D01*
X228136Y202293D01*
X228229Y202331D01*
X228324Y202365D01*
X228419Y202396D01*
X228516Y202423D01*
X228614Y202446D01*
X228713Y202466D01*
X228813Y202481D01*
X228913Y202493D01*
X229013Y202501D01*
X229114Y202505D01*
X229214Y202505D01*
X229315Y202501D01*
X229415Y202493D01*
X229515Y202481D01*
X229615Y202466D01*
X229714Y202446D01*
X229812Y202423D01*
X229909Y202396D01*
X230004Y202365D01*
X230099Y202331D01*
X230192Y202293D01*
X230284Y202251D01*
X230374Y202206D01*
X230462Y202157D01*
X230548Y202105D01*
X230632Y202050D01*
X230714Y201991D01*
X230794Y201930D01*
X230871Y201865D01*
X230945Y201797D01*
X231017Y201727D01*
X231086Y201654D01*
X231153Y201578D01*
X231216Y201499D01*
X231276Y201419D01*
X231333Y201336D01*
X231387Y201250D01*
X231437Y201163D01*
X231484Y201074D01*
X231527Y200983D01*
X231567Y200891D01*
X231603Y200797D01*
X231636Y200702D01*
X231665Y200605D01*
X231690Y200508D01*
X231711Y200409D01*
X231729Y200310D01*
X231742Y200210D01*
X231752Y200110D01*
X231758Y200010D01*
X231760Y199909D01*
X231761Y199909D02*
X231761Y197313D01*
D14*
X91300Y222100D02*
X15100Y222100D01*
X91300Y222100D02*
X262750Y222100D01*
X262750Y364975D01*
X91300Y364975D01*
X15100Y364975D01*
X15100Y222100D01*
X91300Y222100D02*
X91300Y364975D01*
D15*
X64884Y246202D02*
X64884Y235816D01*
X41516Y235816D01*
X41516Y246202D01*
X51902Y243605D02*
X51902Y235816D01*
X64884Y260284D02*
X64882Y260427D01*
X64876Y260570D01*
X64866Y260713D01*
X64852Y260855D01*
X64835Y260997D01*
X64813Y261139D01*
X64788Y261280D01*
X64758Y261420D01*
X64725Y261559D01*
X64688Y261697D01*
X64647Y261834D01*
X64603Y261970D01*
X64554Y262105D01*
X64502Y262238D01*
X64447Y262370D01*
X64387Y262500D01*
X64324Y262629D01*
X64258Y262756D01*
X64188Y262881D01*
X64115Y263003D01*
X64038Y263124D01*
X63958Y263243D01*
X63875Y263359D01*
X63789Y263474D01*
X63700Y263585D01*
X63607Y263695D01*
X63512Y263801D01*
X63413Y263905D01*
X63312Y264006D01*
X63208Y264105D01*
X63102Y264200D01*
X62992Y264293D01*
X62881Y264382D01*
X62766Y264468D01*
X62650Y264551D01*
X62531Y264631D01*
X62410Y264708D01*
X62288Y264781D01*
X62163Y264851D01*
X62036Y264917D01*
X61907Y264980D01*
X61777Y265040D01*
X61645Y265095D01*
X61512Y265147D01*
X61377Y265196D01*
X61241Y265240D01*
X61104Y265281D01*
X60966Y265318D01*
X60827Y265351D01*
X60687Y265381D01*
X60546Y265406D01*
X60404Y265428D01*
X60262Y265445D01*
X60120Y265459D01*
X59977Y265469D01*
X59834Y265475D01*
X59691Y265477D01*
X64884Y260284D02*
X64881Y260022D01*
X64871Y259759D01*
X64856Y259497D01*
X64834Y259236D01*
X64806Y258975D01*
X64771Y258715D01*
X64730Y258455D01*
X64684Y258197D01*
X64631Y257940D01*
X64571Y257684D01*
X64506Y257430D01*
X64435Y257177D01*
X64358Y256927D01*
X64274Y256678D01*
X64185Y256431D01*
X64090Y256186D01*
X63989Y255944D01*
X63882Y255704D01*
X63770Y255467D01*
X63652Y255233D01*
X63528Y255001D01*
X63399Y254773D01*
X63264Y254547D01*
X63124Y254325D01*
X62979Y254106D01*
X62829Y253891D01*
X62673Y253680D01*
X62513Y253472D01*
X62347Y253268D01*
X62177Y253069D01*
X62002Y252873D01*
X61823Y252682D01*
X61638Y252495D01*
X46709Y253144D02*
X46566Y253146D01*
X46423Y253152D01*
X46280Y253162D01*
X46138Y253176D01*
X45996Y253193D01*
X45854Y253215D01*
X45713Y253240D01*
X45573Y253270D01*
X45434Y253303D01*
X45296Y253340D01*
X45159Y253381D01*
X45023Y253425D01*
X44888Y253474D01*
X44755Y253526D01*
X44623Y253581D01*
X44493Y253641D01*
X44364Y253704D01*
X44237Y253770D01*
X44112Y253840D01*
X43990Y253913D01*
X43869Y253990D01*
X43750Y254070D01*
X43634Y254153D01*
X43519Y254239D01*
X43408Y254328D01*
X43298Y254421D01*
X43192Y254516D01*
X43088Y254615D01*
X42987Y254716D01*
X42888Y254820D01*
X42793Y254926D01*
X42700Y255036D01*
X42611Y255147D01*
X42525Y255262D01*
X42442Y255378D01*
X42362Y255497D01*
X42285Y255618D01*
X42212Y255741D01*
X42142Y255865D01*
X42076Y255992D01*
X42013Y256121D01*
X41953Y256251D01*
X41898Y256383D01*
X41846Y256516D01*
X41797Y256651D01*
X41753Y256787D01*
X41712Y256924D01*
X41675Y257062D01*
X41642Y257201D01*
X41612Y257341D01*
X41587Y257482D01*
X41565Y257624D01*
X41548Y257766D01*
X41534Y257908D01*
X41524Y258051D01*
X41518Y258194D01*
X41516Y258337D01*
X41519Y258569D01*
X41527Y258801D01*
X41541Y259033D01*
X41560Y259264D01*
X41585Y259495D01*
X41615Y259725D01*
X41651Y259954D01*
X41692Y260182D01*
X41739Y260410D01*
X41791Y260636D01*
X41849Y260861D01*
X41912Y261084D01*
X41980Y261306D01*
X42053Y261526D01*
X42132Y261744D01*
X42215Y261961D01*
X42304Y262175D01*
X42398Y262387D01*
X42497Y262597D01*
X42601Y262805D01*
X42710Y263009D01*
X42824Y263212D01*
X42943Y263411D01*
X43066Y263608D01*
X43194Y263801D01*
X43326Y263992D01*
X43463Y264179D01*
X51253Y255740D02*
X51178Y255617D01*
X51100Y255496D01*
X51018Y255377D01*
X50934Y255261D01*
X50846Y255147D01*
X50755Y255035D01*
X50661Y254926D01*
X50564Y254819D01*
X50464Y254715D01*
X50362Y254614D01*
X50256Y254515D01*
X50148Y254420D01*
X50038Y254327D01*
X49925Y254238D01*
X49810Y254152D01*
X49692Y254069D01*
X49572Y253989D01*
X49450Y253912D01*
X49326Y253839D01*
X49200Y253769D01*
X49072Y253703D01*
X48942Y253640D01*
X48811Y253581D01*
X48678Y253525D01*
X48543Y253473D01*
X48407Y253425D01*
X48270Y253380D01*
X48132Y253340D01*
X47993Y253303D01*
X47853Y253269D01*
X47712Y253240D01*
X47570Y253215D01*
X47427Y253193D01*
X47284Y253175D01*
X47141Y253162D01*
X46997Y253152D01*
X46853Y253146D01*
X46709Y253144D01*
X55147Y262881D02*
X55222Y263004D01*
X55300Y263125D01*
X55382Y263244D01*
X55466Y263360D01*
X55554Y263474D01*
X55645Y263586D01*
X55739Y263696D01*
X55836Y263802D01*
X55936Y263906D01*
X56038Y264007D01*
X56144Y264106D01*
X56252Y264201D01*
X56362Y264294D01*
X56475Y264383D01*
X56591Y264469D01*
X56708Y264552D01*
X56828Y264632D01*
X56950Y264709D01*
X57074Y264782D01*
X57200Y264852D01*
X57328Y264918D01*
X57458Y264981D01*
X57589Y265040D01*
X57722Y265096D01*
X57857Y265148D01*
X57993Y265196D01*
X58130Y265241D01*
X58268Y265281D01*
X58407Y265318D01*
X58547Y265352D01*
X58688Y265381D01*
X58830Y265406D01*
X58973Y265428D01*
X59116Y265446D01*
X59259Y265459D01*
X59403Y265469D01*
X59547Y265475D01*
X59691Y265477D01*
X55147Y262880D02*
X51253Y255740D01*
X41516Y273521D02*
X64884Y273521D01*
X41516Y273521D02*
X41516Y280012D01*
X41518Y280171D01*
X41524Y280330D01*
X41534Y280490D01*
X41547Y280648D01*
X41565Y280807D01*
X41586Y280964D01*
X41612Y281122D01*
X41641Y281278D01*
X41674Y281434D01*
X41711Y281589D01*
X41751Y281743D01*
X41796Y281896D01*
X41844Y282048D01*
X41895Y282199D01*
X41951Y282348D01*
X42010Y282496D01*
X42073Y282642D01*
X42139Y282787D01*
X42209Y282930D01*
X42282Y283072D01*
X42359Y283211D01*
X42439Y283349D01*
X42523Y283485D01*
X42610Y283618D01*
X42700Y283750D01*
X42793Y283879D01*
X42890Y284005D01*
X42989Y284130D01*
X43092Y284252D01*
X43197Y284371D01*
X43306Y284488D01*
X43417Y284602D01*
X43531Y284713D01*
X43648Y284822D01*
X43767Y284927D01*
X43889Y285030D01*
X44014Y285129D01*
X44140Y285226D01*
X44269Y285319D01*
X44401Y285409D01*
X44534Y285496D01*
X44670Y285580D01*
X44808Y285660D01*
X44947Y285737D01*
X45089Y285810D01*
X45232Y285880D01*
X45377Y285946D01*
X45523Y286009D01*
X45671Y286068D01*
X45820Y286124D01*
X45971Y286175D01*
X46123Y286223D01*
X46276Y286268D01*
X46430Y286308D01*
X46585Y286345D01*
X46741Y286378D01*
X46897Y286407D01*
X47055Y286433D01*
X47212Y286454D01*
X47371Y286472D01*
X47529Y286485D01*
X47689Y286495D01*
X47848Y286501D01*
X48007Y286503D01*
X48166Y286501D01*
X48325Y286495D01*
X48485Y286485D01*
X48643Y286472D01*
X48802Y286454D01*
X48959Y286433D01*
X49117Y286407D01*
X49273Y286378D01*
X49429Y286345D01*
X49584Y286308D01*
X49738Y286268D01*
X49891Y286223D01*
X50043Y286175D01*
X50194Y286124D01*
X50343Y286068D01*
X50491Y286009D01*
X50637Y285946D01*
X50782Y285880D01*
X50925Y285810D01*
X51067Y285737D01*
X51206Y285660D01*
X51344Y285580D01*
X51480Y285496D01*
X51613Y285409D01*
X51745Y285319D01*
X51874Y285226D01*
X52000Y285129D01*
X52125Y285030D01*
X52247Y284927D01*
X52366Y284822D01*
X52483Y284713D01*
X52597Y284602D01*
X52708Y284488D01*
X52817Y284371D01*
X52922Y284252D01*
X53025Y284130D01*
X53124Y284005D01*
X53221Y283879D01*
X53314Y283750D01*
X53404Y283618D01*
X53491Y283485D01*
X53575Y283349D01*
X53655Y283211D01*
X53732Y283072D01*
X53805Y282930D01*
X53875Y282787D01*
X53941Y282642D01*
X54004Y282496D01*
X54063Y282348D01*
X54119Y282199D01*
X54170Y282048D01*
X54218Y281896D01*
X54263Y281743D01*
X54303Y281589D01*
X54340Y281434D01*
X54373Y281278D01*
X54402Y281122D01*
X54428Y280964D01*
X54449Y280807D01*
X54467Y280648D01*
X54480Y280490D01*
X54490Y280330D01*
X54496Y280171D01*
X54498Y280012D01*
X54498Y273521D01*
X55796Y293650D02*
X55796Y309229D01*
X53200Y317219D02*
X52740Y317224D01*
X52281Y317241D01*
X51822Y317268D01*
X51364Y317307D01*
X50907Y317356D01*
X50451Y317416D01*
X49997Y317487D01*
X49544Y317569D01*
X49094Y317662D01*
X48646Y317765D01*
X48201Y317879D01*
X47758Y318004D01*
X47319Y318139D01*
X46883Y318285D01*
X46451Y318441D01*
X46022Y318607D01*
X45597Y318783D01*
X45177Y318970D01*
X44762Y319166D01*
X44761Y319167D02*
X44634Y319212D01*
X44508Y319262D01*
X44383Y319314D01*
X44260Y319371D01*
X44138Y319431D01*
X44019Y319494D01*
X43901Y319560D01*
X43785Y319630D01*
X43671Y319703D01*
X43559Y319779D01*
X43449Y319859D01*
X43342Y319941D01*
X43237Y320027D01*
X43134Y320115D01*
X43034Y320206D01*
X42936Y320300D01*
X42842Y320397D01*
X42750Y320496D01*
X42660Y320598D01*
X42574Y320702D01*
X42491Y320809D01*
X42411Y320918D01*
X42333Y321030D01*
X42260Y321143D01*
X42189Y321258D01*
X42121Y321376D01*
X42057Y321495D01*
X41996Y321616D01*
X41939Y321739D01*
X41885Y321863D01*
X41835Y321989D01*
X41788Y322116D01*
X41745Y322244D01*
X41706Y322374D01*
X41670Y322504D01*
X41638Y322636D01*
X41609Y322768D01*
X41585Y322901D01*
X41564Y323035D01*
X41547Y323170D01*
X41533Y323304D01*
X41524Y323439D01*
X41518Y323575D01*
X41516Y323710D01*
X41518Y323845D01*
X41524Y323981D01*
X41533Y324116D01*
X41547Y324251D01*
X41564Y324385D01*
X41585Y324519D01*
X41609Y324652D01*
X41638Y324784D01*
X41670Y324916D01*
X41706Y325046D01*
X41745Y325176D01*
X41788Y325304D01*
X41835Y325431D01*
X41885Y325557D01*
X41939Y325681D01*
X41996Y325804D01*
X42057Y325925D01*
X42121Y326044D01*
X42189Y326162D01*
X42260Y326277D01*
X42334Y326390D01*
X42411Y326502D01*
X42491Y326611D01*
X42574Y326718D01*
X42660Y326822D01*
X42750Y326924D01*
X42842Y327023D01*
X42936Y327120D01*
X43034Y327214D01*
X43134Y327305D01*
X43237Y327393D01*
X43342Y327479D01*
X43449Y327561D01*
X43559Y327641D01*
X43671Y327717D01*
X43785Y327790D01*
X43901Y327860D01*
X44019Y327926D01*
X44138Y327989D01*
X44260Y328049D01*
X44383Y328106D01*
X44508Y328158D01*
X44634Y328208D01*
X44761Y328253D01*
X44761Y328254D02*
X45177Y328450D01*
X45597Y328637D01*
X46022Y328813D01*
X46450Y328979D01*
X46883Y329135D01*
X47319Y329281D01*
X47758Y329416D01*
X48201Y329541D01*
X48646Y329655D01*
X49094Y329758D01*
X49544Y329851D01*
X49997Y329933D01*
X50451Y330004D01*
X50907Y330064D01*
X51364Y330113D01*
X51822Y330152D01*
X52281Y330179D01*
X52740Y330196D01*
X53200Y330201D01*
X53200Y317219D02*
X53660Y317224D01*
X54119Y317241D01*
X54578Y317268D01*
X55036Y317307D01*
X55493Y317356D01*
X55949Y317416D01*
X56403Y317487D01*
X56856Y317569D01*
X57306Y317662D01*
X57754Y317765D01*
X58199Y317879D01*
X58642Y318004D01*
X59081Y318139D01*
X59517Y318285D01*
X59949Y318441D01*
X60378Y318607D01*
X60803Y318783D01*
X61223Y318970D01*
X61638Y319166D01*
X61639Y319167D02*
X61766Y319212D01*
X61892Y319262D01*
X62017Y319314D01*
X62140Y319371D01*
X62262Y319431D01*
X62381Y319494D01*
X62499Y319560D01*
X62615Y319630D01*
X62729Y319703D01*
X62841Y319779D01*
X62951Y319859D01*
X63058Y319941D01*
X63163Y320027D01*
X63266Y320115D01*
X63366Y320206D01*
X63464Y320300D01*
X63558Y320397D01*
X63650Y320496D01*
X63740Y320598D01*
X63826Y320703D01*
X63909Y320809D01*
X63989Y320918D01*
X64067Y321030D01*
X64140Y321143D01*
X64211Y321258D01*
X64279Y321376D01*
X64343Y321495D01*
X64404Y321616D01*
X64461Y321739D01*
X64515Y321863D01*
X64565Y321989D01*
X64612Y322116D01*
X64655Y322244D01*
X64694Y322374D01*
X64730Y322504D01*
X64762Y322636D01*
X64791Y322768D01*
X64815Y322901D01*
X64836Y323035D01*
X64853Y323170D01*
X64867Y323304D01*
X64876Y323439D01*
X64882Y323575D01*
X64884Y323710D01*
X61638Y328254D02*
X61223Y328450D01*
X60803Y328637D01*
X60378Y328813D01*
X59950Y328979D01*
X59517Y329135D01*
X59081Y329281D01*
X58642Y329416D01*
X58199Y329541D01*
X57754Y329655D01*
X57306Y329758D01*
X56856Y329851D01*
X56403Y329933D01*
X55949Y330004D01*
X55493Y330064D01*
X55036Y330113D01*
X54578Y330152D01*
X54119Y330179D01*
X53660Y330196D01*
X53200Y330201D01*
X61639Y328253D02*
X61766Y328208D01*
X61892Y328158D01*
X62017Y328106D01*
X62140Y328049D01*
X62262Y327989D01*
X62381Y327926D01*
X62499Y327860D01*
X62615Y327790D01*
X62729Y327717D01*
X62841Y327641D01*
X62951Y327561D01*
X63058Y327479D01*
X63163Y327393D01*
X63266Y327305D01*
X63366Y327214D01*
X63464Y327120D01*
X63558Y327023D01*
X63650Y326924D01*
X63740Y326822D01*
X63826Y326717D01*
X63909Y326611D01*
X63989Y326502D01*
X64067Y326390D01*
X64140Y326277D01*
X64211Y326162D01*
X64279Y326044D01*
X64343Y325925D01*
X64404Y325804D01*
X64461Y325681D01*
X64515Y325557D01*
X64565Y325431D01*
X64612Y325304D01*
X64655Y325176D01*
X64694Y325046D01*
X64730Y324916D01*
X64762Y324784D01*
X64791Y324652D01*
X64815Y324519D01*
X64836Y324385D01*
X64853Y324250D01*
X64867Y324116D01*
X64876Y323981D01*
X64882Y323845D01*
X64884Y323710D01*
X59691Y318517D02*
X46709Y328903D01*
X46709Y338098D02*
X41516Y344589D01*
X64884Y344589D01*
X64884Y338098D02*
X64884Y351080D01*
M02*
