G04 EAGLE Gerber RS-274X export*
G75*
%MOMM*%
%FSLAX34Y34*%
%LPD*%
%INSoldermask Top*%
%IPPOS*%
%AMOC8*
5,1,8,0,0,1.08239X$1,22.5*%
G01*
%ADD10C,3.203200*%
%ADD11R,0.863600X2.235200*%
%ADD12C,1.625600*%
%ADD13C,1.727200*%
%ADD14R,1.703200X1.503200*%
%ADD15R,1.511200X1.511200*%
%ADD16C,1.511200*%
%ADD17C,1.117600*%


D10*
X25400Y368300D03*
X152400Y228600D03*
D11*
X88900Y45466D03*
X88900Y106934D03*
X101600Y45466D03*
X114300Y45466D03*
X101600Y106934D03*
X114300Y106934D03*
X127000Y45466D03*
X127000Y106934D03*
X139700Y45466D03*
X152400Y45466D03*
X139700Y106934D03*
X152400Y106934D03*
X165100Y45466D03*
X165100Y106934D03*
D12*
X96012Y152400D02*
X81788Y152400D01*
X81788Y177800D02*
X96012Y177800D01*
X183388Y152400D02*
X197612Y152400D01*
X197612Y177800D02*
X183388Y177800D01*
D13*
X45720Y101600D02*
X30480Y101600D01*
X30480Y76200D02*
X45720Y76200D01*
X45720Y50800D02*
X30480Y50800D01*
X30480Y25400D02*
X45720Y25400D01*
X233680Y101600D02*
X248920Y101600D01*
X248920Y76200D02*
X233680Y76200D01*
X233680Y50800D02*
X248920Y50800D01*
X248920Y25400D02*
X233680Y25400D01*
D14*
X139700Y155600D03*
X139700Y174600D03*
X38100Y174600D03*
X38100Y155600D03*
X228600Y155600D03*
X228600Y174600D03*
D15*
X221475Y253850D03*
X221475Y330050D03*
D16*
X221475Y279250D03*
X221475Y304650D03*
X246875Y304650D03*
X246875Y279250D03*
X246875Y253850D03*
X246875Y330050D03*
D17*
X228854Y139700D03*
X128270Y125730D03*
X186944Y125730D03*
M02*
