M48
;GenerationSoftware,Autodesk,EAGLE,9.2.2*%
;CreationDate,2019-12-22T00:45:46Z*%
FMAT,2
ICI,OFF
METRIC,TZ,000.000
T5C0.508
T4C0.800
T3C0.914
T2C1.016
T1C3.000
%
G90
M71
T1
X2540Y36830
X15240Y22860
T2
X3810Y10160
X3810Y7620
X3810Y5080
X3810Y2540
X24130Y10160
X24130Y7620
X24130Y5080
X24130Y2540
T3
X8890Y15240
X8890Y17780
X19050Y15240
X19050Y17780
T4
X22147Y25385
X22147Y33005
X22147Y27925
X22147Y30465
X24687Y30465
X24687Y27925
X24687Y25385
X24687Y33005
T5
X22885Y13970
X12827Y12573
X18694Y12573
M30